<svg class="krug-ring-svg" viewBox="0 0 660 660" aria-hidden="true" xmlns="http://www.w3.org/2000/svg"><defs><linearGradient id="krgrad" x1="0" y1="1" x2="1" y2="0"><stop offset="0" stop-color="#5c1f10"/><stop offset="0.35" stop-color="#B8451E"/><stop offset="0.65" stop-color="#D86934"/><stop offset="1" stop-color="#E6B678"/></linearGradient><filter id="krglow" x="-25%" y="-25%" width="150%" height="150%"><feGaussianBlur stdDeviation="2.4" result="b"/><feMerge><feMergeNode in="b"/><feMergeNode in="SourceGraphic"/></feMerge></filter></defs><g filter="url(#krglow)" stroke="url(#krgrad)" fill="none"><path d="M499.2 209.7 L496.1 206.1 L493.3 202.4 L490.5 198.6 L487.9 194.7 L485.3 190.7 L482.8 186.6 L480.3 182.5 L477.9 178.2 L475.3 173.9 L472.8 169.6 L470.1 165.3 L467.4 160.9 L464.5 156.6 L461.5 152.3 L458.4 148.1 L455.1 144.0 L451.6 140.0 L448.0 136.3 L444.2 132.7 L440.2 129.3 L436.0 126.2 L431.6 123.4 L427.0 120.9 L422.4 118.5 L417.7 116.2 L413.0 113.9 L408.3 111.7 L403.5 109.6 L398.6 107.6 L393.7 105.6 L388.8 103.8 L383.8 102.0 L378.7 100.4 L373.6 98.8 L368.5 97.4 L363.3 96.1 L358.1 94.9 L352.9 93.8 L347.6 92.9 L342.2 92.1 L336.9 91.5 L331.5 91.0 L326.1 90.6 L320.7 90.5 L315.3 90.4 L309.9 90.6 L304.5 90.8 L299.1 91.3 L293.7 91.9 L288.3 92.7 L283.0 93.7 L277.7 94.8 L272.4 96.1 L267.2 97.5 L262.0 99.1 L256.9 100.9 L251.8 102.8 L246.8 104.9 L241.8 107.1 L237.0 109.4 L232.2 111.9 L227.5 114.5 L222.8 117.3 L218.3 120.1 L213.8 123.1 L209.4 126.2 L205.1 129.4 L200.9 132.7 L196.8 136.1 L192.8 139.5 L188.8 143.1 L184.9 146.7 L181.2 150.4 L177.5 154.1 L173.8 158.0 L170.3 161.8 L166.8 165.7 L163.4 169.7 L160.1 173.7 L156.9 177.8 L153.7 181.9 L150.6 186.0 L147.5 190.2 L144.5 194.5 L141.6 198.7 L138.7 203.0 L135.9 207.4 L133.1 211.7 L130.4 216.2 L127.8 220.6 L125.2 225.1 L122.7 229.6 L120.2 234.2 L117.9 238.9 L115.5 243.5 L113.3 248.3 L111.1 253.0 L109.0 257.8 L107.0 262.7 L105.1 267.6 L103.3 272.6 L101.6 277.6 L99.9 282.6 L98.4 287.7 L97.0 292.9 L95.8 298.1 L94.6 303.3 L93.6 308.6 L92.7 313.9 L91.9 319.2 L91.3 324.6 L90.9 329.9 L90.6 335.3 L90.4 340.7 L90.4 346.2 L90.6 351.6 L91.0 357.0 L91.4 362.4 L91.9 367.8 L92.3 373.2 L92.7 378.7 L93.1 384.2 L93.6 389.7 L94.1 395.3 L94.7 400.9 L95.4 406.5 L96.2 412.1 L97.2 417.7 L98.3 423.3 L99.6 428.8 L101.0 434.4 L102.7 439.9 L104.6 445.3 L106.7 450.6 L109.0 455.9 L111.6 461.0 L114.5 466.0 L117.6 470.8 L121.0 475.5 L124.6 479.9" stroke-width="1.25" stroke-linecap="round" opacity="0.62"/><path d="M517.3 113.8 L521.6 118.0 L525.6 122.5 L529.2 127.3 L532.6 132.3 L535.7 137.6 L538.5 143.0 L541.0 148.6 L543.3 154.2 L545.3 160.0 L547.2 165.8 L548.8 171.7 L550.3 177.5 L551.6 183.4 L552.9 189.2 L554.0 195.0 L555.1 200.7 L556.2 206.3 L557.2 211.8 L558.4 217.3 L559.5 222.6 L560.8 227.9 L562.2 233.0 L563.8 238.1 L565.6 243.0 L567.5 247.9 L569.5 252.8 L571.3 257.8 L573.0 262.8 L574.6 267.8 L576.1 272.9 L577.5 278.0 L578.7 283.2 L579.8 288.4 L580.8 293.6 L581.7 298.9 L582.5 304.1 L583.1 309.4 L583.6 314.7 L583.9 320.0 L584.1 325.4 L584.2 330.7 L584.2 336.0 L584.0 341.4 L583.7 346.7 L583.2 352.0 L582.6 357.3 L581.9 362.6 L581.0 367.8 L580.1 373.0 L578.9 378.3 L577.7 383.4 L576.3 388.6 L574.9 393.7 L573.3 398.7 L571.5 403.7 L569.7 408.7 L567.7 413.6 L565.7 418.5 L563.5 423.3 L561.3 428.1 L558.9 432.8 L556.5 437.5 L553.9 442.1 L551.3 446.6 L548.5 451.1 L545.7 455.5 L542.8 459.9 L539.9 464.2 L536.8 468.4 L533.7 472.6 L530.5 476.7 L527.3 480.8 L523.9 484.8 L520.5 488.8 L517.1 492.6 L513.5 496.5 L510.0 500.2 L506.3 503.9 L502.6 507.6 L498.8 511.1 L495.0 514.6 L491.1 518.1 L487.2 521.5 L483.2 524.8 L479.1 528.1 L475.0 531.2 L470.9 534.4 L466.6 537.4 L462.4 540.4 L458.0 543.3 L453.6 546.1 L449.2 548.9 L444.7 551.5 L440.1 554.1 L435.5 556.6 L430.9 559.0 L426.1 561.3 L421.4 563.6 L416.5 565.7 L411.7 567.7 L406.7 569.6 L401.8 571.5 L396.8 573.2 L391.7 574.7 L386.6 576.2 L381.5 577.6 L376.3 578.8 L371.1 579.9 L365.9 580.9 L360.7 581.8 L355.4 582.5 L350.1 583.1 L344.8 583.6 L339.5 583.9 L334.2 584.2 L328.8 584.3 L323.5 584.5 L318.1 585.0 L312.7 585.5 L307.3 586.2 L301.8 586.9 L296.2 587.6 L290.6 588.4 L284.9 589.2 L279.1 589.9 L273.3 590.5 L267.4 591.0 L261.5 591.4 L255.6 591.7 L249.6 591.8 L243.6 591.6 L237.6 591.3 L231.6 590.6 L225.7 589.7 L219.8 588.5 L214.0 587.0 L208.3 585.2 L202.8 583.0 L197.4 580.5 L192.2 577.5" stroke-width="0.87" stroke-linecap="round" opacity="0.62"/><path d="M551.9 167.0 L548.0 162.3 L543.6 158.0 L538.7 154.2 L533.4 150.8 L527.7 147.8 L521.8 145.2 L515.7 143.0 L509.4 141.1 L503.0 139.5 L496.6 138.2 L490.1 137.1 L483.8 136.2 L477.4 135.5 L471.2 134.8 L465.2 134.1 L459.3 133.4 L453.7 132.6 L448.2 131.6 L443.0 130.4 L438.1 128.9 L433.2 127.2 L428.4 125.5 L423.6 123.9 L418.8 122.3 L414.1 120.7 L409.3 119.2 L404.5 117.6 L399.8 116.1 L395.0 114.6 L390.3 113.1 L385.5 111.6 L380.7 110.0 L375.9 108.6 L371.0 107.1 L366.2 105.6 L361.3 104.2 L356.3 102.8 L351.4 101.5 L346.3 100.2 L341.3 99.0 L336.2 97.8 L331.0 96.8 L325.8 95.9 L320.6 95.1 L315.3 94.5 L310.0 94.0 L304.7 93.6 L299.3 93.4 L294.0 93.4 L288.6 93.6 L283.3 94.0 L277.9 94.6 L272.6 95.5 L267.3 96.5 L262.1 97.7 L256.9 99.2 L251.8 100.9 L246.8 102.8 L241.8 104.9 L237.0 107.2 L232.2 109.7 L227.5 112.3 L223.0 115.2 L218.6 118.2 L214.2 121.4 L210.0 124.7 L206.0 128.1 L202.0 131.7 L198.1 135.3 L194.4 139.1 L190.7 142.9 L187.2 146.8 L183.8 150.7 L180.4 154.7 L177.1 158.7 L173.9 162.8 L170.8 166.8 L167.7 170.9 L164.6 174.9 L161.6 179.0 L158.6 183.1 L155.7 187.1 L152.7 191.2 L149.8 195.2 L146.9 199.3 L144.0 203.3 L141.1 207.4 L138.1 211.5 L135.2 215.6 L132.3 219.7 L129.4 223.9 L126.5 228.1 L123.7 232.3 L120.8 236.6 L118.1 240.9 L115.3 245.3 L112.6 249.8 L110.0 254.3 L107.5 259.0 L105.0 263.7 L102.7 268.4 L100.5 273.3 L98.5 278.2 L96.6 283.2 L94.8 288.2 L93.2 293.4 L91.8 298.6 L90.7 303.8 L89.7 309.1 L88.9 314.4 L88.3 319.7 L88.0 325.1 L87.9 330.5 L88.0 335.9 L88.3 341.2 L88.9 346.6 L89.7 351.9 L90.7 357.2 L91.9 362.4 L93.3 367.6 L95.1 372.7 L97.4 377.6 L100.3 382.4 L103.5 386.9 L107.1 391.3 L111.1 395.5 L115.2 399.5 L119.6 403.3 L124.1 406.9 L128.6 410.3 L133.2 413.6 L137.8 416.8 L142.2 419.8 L146.6 422.8 L150.7 425.8 L154.7 428.7 L158.4 431.7 L161.8 434.8 L164.9 438.1 L167.7 441.5" stroke-width="0.79" stroke-linecap="round" opacity="0.81"/><path d="M472.8 107.7 L468.3 104.5 L463.7 101.4 L458.9 98.6 L454.1 96.0 L449.1 93.6 L444.0 91.4 L438.8 89.5 L433.6 87.7 L428.3 86.1 L423.0 84.7 L417.6 83.4 L412.2 82.4 L406.8 81.4 L401.4 80.7 L395.9 80.0 L390.5 79.5 L385.1 79.0 L379.7 78.7 L374.3 78.4 L368.9 78.2 L363.6 78.1 L358.3 78.0 L353.0 78.0 L347.7 77.9 L342.4 77.9 L337.1 77.8 L331.9 77.7 L326.6 77.7 L321.3 77.8 L316.1 78.0 L310.8 78.3 L305.6 78.9 L300.3 79.5 L295.1 80.3 L289.9 81.2 L284.8 82.3 L279.7 83.5 L274.6 84.8 L269.5 86.3 L264.5 87.9 L259.6 89.6 L254.7 91.4 L249.8 93.4 L245.1 95.5 L240.3 97.7 L235.7 100.0 L231.0 102.4 L226.5 104.9 L222.0 107.6 L217.6 110.3 L213.3 113.1 L209.0 116.0 L204.9 119.0 L200.7 122.1 L196.7 125.3 L192.7 128.5 L188.9 131.8 L185.0 135.2 L181.3 138.7 L177.7 142.2 L174.1 145.8 L170.6 149.4 L167.1 153.1 L163.8 156.9 L160.5 160.7 L157.3 164.5 L154.2 168.4 L151.1 172.3 L148.1 176.3 L145.2 180.4 L142.3 184.4 L139.5 188.5 L136.8 192.7 L134.1 196.8 L131.5 201.0 L129.0 205.3 L126.5 209.6 L124.1 213.9 L121.8 218.2 L119.5 222.6 L117.3 227.0 L115.2 231.5 L113.1 235.9 L111.1 240.4 L109.1 245.0 L107.2 249.5 L105.4 254.1 L103.6 258.8 L102.0 263.5 L100.4 268.2 L98.8 272.9 L97.3 277.6 L96.0 282.4 L94.6 287.3 L93.4 292.1 L92.3 297.0 L91.2 301.9 L90.2 306.9 L89.3 311.9 L88.5 316.9 L87.8 321.9 L87.2 326.9 L86.7 332.0 L86.3 337.1 L86.0 342.2 L85.8 347.3 L85.7 352.5 L85.7 357.6 L85.9 362.8 L86.1 368.0 L86.5 373.1 L87.0 378.3 L87.6 383.4 L88.3 388.6 L88.9 393.8 L89.5 399.1 L90.1 404.3 L90.8 409.6 L91.5 415.0 L92.2 420.4 L93.1 425.7 L94.0 431.2 L95.0 436.6 L96.1 442.0 L97.4 447.5 L98.7 452.9 L100.3 458.3 L102.0 463.7 L103.8 469.0 L105.9 474.3 L108.1 479.5 L110.5 484.6 L113.1 489.7 L115.9 494.6 L118.9 499.4 L122.2 504.1 L125.6 508.6 L129.3 512.9 L133.1 517.0 L137.2 521.0" stroke-width="1.57" stroke-linecap="round" opacity="0.58"/><path d="M473.3 165.4 L469.8 162.3 L466.5 159.1 L463.2 155.7 L460.1 152.1 L457.0 148.4 L453.9 144.6 L450.8 140.7 L447.7 136.7 L444.5 132.6 L441.2 128.5 L437.9 124.3 L434.5 120.2 L430.9 116.1 L427.2 112.1 L423.4 108.1 L419.4 104.3 L415.3 100.7 L411.0 97.2 L406.6 94.0 L402.0 91.0 L397.3 88.3 L392.4 86.0 L387.4 84.0 L382.3 82.3 L377.1 80.7 L371.9 79.2 L366.7 77.8 L361.4 76.6 L356.1 75.5 L350.7 74.6 L345.3 73.8 L339.9 73.2 L334.5 72.7 L329.0 72.4 L323.6 72.3 L318.1 72.3 L312.6 72.5 L307.2 72.8 L301.7 73.4 L296.3 74.1 L290.9 74.9 L285.6 76.0 L280.2 77.1 L274.9 78.5 L269.7 80.0 L264.5 81.7 L259.4 83.5 L254.3 85.4 L249.3 87.5 L244.3 89.7 L239.4 92.1 L234.6 94.6 L229.9 97.2 L225.2 99.9 L220.6 102.7 L216.1 105.6 L211.7 108.6 L207.3 111.7 L203.0 114.9 L198.8 118.1 L194.7 121.5 L190.6 124.8 L186.7 128.3 L182.7 131.8 L178.9 135.4 L175.1 139.0 L171.4 142.6 L167.7 146.4 L164.1 150.1 L160.6 153.9 L157.1 157.7 L153.6 161.5 L150.2 165.4 L146.9 169.4 L143.6 173.3 L140.3 177.3 L137.1 181.3 L133.9 185.4 L130.8 189.5 L127.7 193.7 L124.6 197.8 L121.6 202.1 L118.7 206.3 L115.8 210.7 L112.9 215.0 L110.2 219.4 L107.4 223.9 L104.8 228.4 L102.1 233.0 L99.6 237.6 L97.2 242.3 L94.8 247.1 L92.5 251.9 L90.3 256.8 L88.2 261.7 L86.2 266.7 L84.4 271.7 L82.6 276.8 L80.9 281.9 L79.4 287.1 L78.0 292.3 L76.8 297.6 L75.7 302.9 L74.7 308.3 L73.9 313.7 L73.3 319.1 L72.8 324.5 L72.4 330.0 L72.3 335.4 L72.3 340.9 L72.4 346.4 L72.8 351.8 L73.3 357.3 L73.9 362.7 L74.8 368.1 L75.7 373.5 L76.9 378.8 L78.4 384.1 L80.3 389.2 L82.7 394.2 L85.4 399.0 L88.5 403.7 L92.0 408.2 L95.7 412.5 L99.6 416.7 L103.7 420.7 L108.0 424.4 L112.4 428.1 L116.9 431.5 L121.4 434.8 L125.9 438.0 L130.4 441.1 L134.9 444.1 L139.3 447.0 L143.5 449.9 L147.7 452.8 L151.6 455.7 L155.4 458.7 L158.9 461.8 L162.3 464.9" stroke-width="0.75" stroke-linecap="round" opacity="0.73"/><path d="M495.6 161.3 L499.6 165.4 L503.5 169.5 L507.3 173.6 L511.2 177.7 L515.0 181.9 L518.8 186.1 L522.5 190.4 L526.1 194.8 L529.7 199.2 L533.3 203.8 L536.7 208.4 L540.0 213.1 L543.3 217.8 L546.4 222.7 L549.4 227.7 L552.2 232.7 L554.9 237.9 L557.5 243.1 L559.8 248.5 L562.0 253.9 L563.9 259.4 L565.7 265.0 L567.2 270.6 L568.5 276.3 L569.5 282.0 L570.4 287.8 L571.0 293.6 L571.6 299.4 L572.0 305.2 L572.3 311.0 L572.6 316.8 L572.6 322.6 L572.6 328.4 L572.5 334.2 L572.2 340.0 L571.8 345.7 L571.4 351.5 L570.8 357.3 L570.1 363.0 L569.2 368.7 L568.3 374.4 L567.3 380.1 L566.1 385.8 L564.9 391.5 L563.5 397.1 L562.0 402.7 L560.4 408.3 L558.7 413.8 L556.8 419.4 L554.9 424.9 L552.8 430.3 L550.6 435.7 L548.3 441.1 L545.9 446.5 L543.3 451.7 L540.7 457.0 L537.9 462.2 L534.9 467.3 L531.9 472.3 L528.7 477.3 L525.4 482.2 L522.0 487.1 L518.5 491.9 L514.8 496.6 L511.0 501.1 L507.1 505.7 L503.1 510.1 L499.0 514.4 L494.7 518.6 L490.3 522.7 L485.9 526.6 L481.3 530.5 L476.6 534.2 L471.8 537.8 L466.9 541.3 L461.9 544.7 L456.8 547.9 L451.6 550.9 L446.3 553.8 L441.0 556.6 L435.5 559.2 L430.0 561.7 L424.5 564.0 L418.8 566.1 L413.2 568.1 L407.4 569.9 L401.6 571.6 L395.8 573.1 L390.0 574.4 L384.1 575.6 L378.1 576.6 L372.2 577.5 L366.2 578.2 L360.3 578.7 L354.3 579.1 L348.3 579.3 L342.4 579.3 L336.4 579.2 L330.4 579.0 L324.5 578.6 L318.6 578.0 L312.7 577.3 L306.8 576.5 L301.0 575.5 L295.2 574.4 L289.4 573.1 L283.7 571.8 L278.0 570.2 L272.4 568.6 L266.8 566.8 L261.2 565.0 L255.7 563.0 L250.3 560.9 L244.9 558.6 L239.6 556.3 L234.2 554.0 L228.9 551.6 L223.6 549.2 L218.3 546.9 L213.0 544.5 L207.6 542.0 L202.3 539.5 L197.0 536.9 L191.7 534.3 L186.5 531.5 L181.2 528.7 L176.0 525.8 L170.8 522.7 L165.6 519.5 L160.5 516.2 L155.5 512.8 L150.6 509.2 L145.7 505.5 L141.0 501.6 L136.3 497.5 L131.8 493.3 L127.5 488.9 L123.3 484.4 L119.3 479.7 L115.5 474.8" stroke-width="0.73" stroke-linecap="round" opacity="0.80"/><path d="M540.4 183.6 L543.4 187.4 L546.1 191.4 L548.6 195.6 L550.8 199.9 L552.8 204.3 L554.5 208.9 L556.0 213.5 L557.3 218.2 L558.4 223.0 L559.2 227.8 L559.9 232.7 L560.5 237.5 L560.8 242.4 L561.1 247.3 L561.2 252.1 L561.2 256.9 L561.1 261.7 L561.0 266.5 L560.7 271.2 L560.5 275.9 L560.3 280.5 L560.0 285.1 L559.8 289.6 L559.6 294.1 L559.5 298.5 L559.5 302.9 L559.6 307.3 L559.6 311.7 L559.4 316.0 L559.2 320.4 L558.9 324.7 L558.5 329.0 L558.0 333.3 L557.4 337.6 L556.7 341.9 L555.9 346.1 L555.1 350.3 L554.2 354.5 L553.2 358.7 L552.2 362.8 L551.1 366.9 L549.9 371.0 L548.7 375.1 L547.4 379.1 L546.1 383.1 L544.7 387.1 L543.3 391.0 L541.8 395.0 L540.3 398.9 L538.7 402.7 L537.2 406.6 L535.5 410.4 L533.9 414.3 L532.2 418.0 L530.4 421.8 L528.6 425.6 L526.8 429.3 L525.0 433.0 L523.1 436.8 L521.1 440.4 L519.2 444.1 L517.2 447.8 L515.1 451.4 L513.0 455.0 L510.9 458.6 L508.7 462.2 L506.4 465.8 L504.1 469.3 L501.8 472.8 L499.4 476.3 L496.9 479.8 L494.4 483.2 L491.8 486.6 L489.2 490.0 L486.4 493.3 L483.7 496.6 L480.8 499.9 L477.9 503.0 L474.9 506.2 L471.9 509.3 L468.8 512.3 L465.6 515.2 L462.3 518.1 L459.0 520.9 L455.6 523.7 L452.1 526.4 L448.6 528.9 L445.0 531.4 L441.3 533.8 L437.6 536.1 L433.8 538.4 L429.9 540.5 L426.0 542.5 L422.0 544.4 L418.0 546.2 L413.9 547.9 L409.8 549.5 L405.7 550.9 L401.5 552.3 L397.3 553.5 L393.0 554.6 L388.7 555.6 L384.4 556.5 L380.1 557.3 L375.7 558.0 L371.4 558.5 L367.0 558.9 L362.6 559.3 L358.3 559.5 L353.9 559.6 L349.5 559.6 L345.1 559.5 L340.8 559.3 L336.5 559.0 L332.1 558.8 L327.8 558.8 L323.5 559.0 L319.2 559.2 L314.8 559.6 L310.4 560.0 L306.0 560.6 L301.5 561.1 L297.0 561.7 L292.4 562.3 L287.8 562.8 L283.1 563.3 L278.4 563.8 L273.7 564.2 L268.9 564.5 L264.1 564.7 L259.3 564.7 L254.5 564.6 L249.7 564.3 L244.9 563.9 L240.1 563.2 L235.4 562.3 L230.7 561.2 L226.1 559.8 L221.7 558.1 L217.3 556.1" stroke-width="1.22" stroke-linecap="round" opacity="0.78"/><path d="M419.1 164.2 L423.3 166.3 L427.7 168.1 L432.3 169.7 L437.1 171.1 L442.1 172.4 L447.3 173.6 L452.6 174.8 L458.1 176.0 L463.7 177.2 L469.4 178.5 L475.2 180.0 L481.0 181.6 L486.8 183.4 L492.6 185.5 L498.3 187.8 L503.9 190.4 L509.3 193.3 L514.5 196.5 L519.5 200.0 L524.1 203.9 L528.4 208.0 L532.3 212.6 L535.7 217.4 L538.6 222.5 L541.5 227.6 L544.2 232.9 L546.8 238.2 L549.3 243.5 L551.6 249.0 L553.8 254.5 L555.8 260.1 L557.7 265.7 L559.4 271.4 L560.9 277.1 L562.4 282.9 L563.6 288.7 L564.7 294.6 L565.6 300.4 L566.4 306.4 L567.0 312.3 L567.4 318.2 L567.7 324.2 L567.8 330.1 L567.7 336.1 L567.4 342.1 L567.0 348.0 L566.4 353.9 L565.7 359.9 L564.8 365.7 L563.7 371.6 L562.5 377.4 L561.1 383.2 L559.5 388.9 L557.8 394.6 L555.9 400.3 L553.9 405.9 L551.7 411.4 L549.4 416.8 L547.0 422.2 L544.4 427.5 L541.6 432.8 L538.8 437.9 L535.8 443.0 L532.7 448.0 L529.4 452.9 L526.1 457.8 L522.6 462.5 L519.0 467.1 L515.3 471.7 L511.6 476.1 L507.7 480.5 L503.7 484.8 L499.6 488.9 L495.4 493.0 L491.1 497.0 L486.8 500.8 L482.3 504.6 L477.8 508.2 L473.2 511.8 L468.6 515.2 L463.8 518.6 L459.0 521.8 L454.1 524.9 L449.2 528.0 L444.2 530.9 L439.1 533.7 L434.0 536.4 L428.8 539.0 L423.5 541.4 L418.2 543.8 L412.9 546.0 L407.5 548.1 L402.0 550.1 L396.5 552.0 L391.0 553.7 L385.4 555.4 L379.8 556.9 L374.1 558.2 L368.4 559.5 L362.7 560.6 L356.9 561.6 L351.1 562.4 L345.3 563.1 L339.4 563.7 L333.6 564.1 L327.7 564.3 L321.8 564.5 L315.9 564.4 L310.0 564.2 L304.1 563.9 L298.3 563.4 L292.4 562.8 L286.5 562.0 L280.7 561.0 L274.8 559.9 L269.0 558.7 L263.3 557.2 L257.6 555.4 L252.1 553.1 L246.8 550.5 L241.7 547.4 L236.7 544.0 L232.0 540.2 L227.5 536.2 L223.2 532.0 L219.1 527.6 L215.2 523.0 L211.5 518.3 L208.0 513.5 L204.7 508.7 L201.5 503.8 L198.4 498.9 L195.4 494.1 L192.5 489.3 L189.7 484.6 L186.9 480.0 L184.0 475.4 L181.1 471.1 L178.2 466.8 L175.1 462.7" stroke-width="0.80" stroke-linecap="round" opacity="0.62"/><path d="M454.1 184.0 L457.7 186.5 L461.5 188.9 L465.5 191.1 L469.6 193.1 L474.0 195.1 L478.5 197.1 L483.2 199.1 L487.9 201.1 L492.8 203.2 L497.7 205.5 L502.6 207.8 L507.5 210.3 L512.4 213.0 L517.1 215.8 L521.7 218.9 L526.2 222.2 L530.4 225.8 L534.4 229.6 L538.1 233.6 L541.4 237.8 L544.4 242.2 L547.1 246.9 L549.3 251.7 L551.0 256.7 L552.3 261.8 L553.2 267.1 L553.9 272.4 L554.3 277.7 L554.5 283.0 L554.5 288.3 L554.4 293.6 L554.0 298.9 L553.6 304.1 L553.0 309.3 L552.3 314.4 L551.6 319.6 L550.8 324.6 L550.0 329.7 L549.1 334.6 L548.3 339.6 L547.5 344.5 L546.7 349.4 L545.9 354.3 L545.2 359.2 L544.5 364.1 L543.9 369.0 L543.3 374.0 L542.7 378.9 L542.1 383.9 L541.6 388.9 L541.0 393.9 L540.4 399.0 L539.7 404.1 L539.0 409.3 L538.2 414.4 L537.2 419.6 L536.1 424.7 L534.9 429.9 L533.5 435.0 L531.9 440.1 L530.1 445.1 L528.1 450.0 L525.9 454.9 L523.5 459.6 L520.8 464.2 L517.9 468.6 L514.8 473.0 L511.5 477.1 L507.9 481.1 L504.2 484.8 L500.3 488.4 L496.2 491.8 L491.9 495.0 L487.5 498.1 L483.0 500.9 L478.4 503.6 L473.8 506.1 L469.1 508.4 L464.3 510.6 L459.5 512.7 L454.7 514.7 L449.9 516.6 L445.1 518.5 L440.3 520.3 L435.6 522.1 L430.9 523.8 L426.2 525.6 L421.6 527.3 L417.0 529.1 L412.4 531.0 L407.8 532.8 L403.2 534.7 L398.6 536.7 L394.1 538.6 L389.5 540.6 L384.8 542.7 L380.2 544.7 L375.5 546.7 L370.7 548.7 L365.9 550.6 L361.0 552.5 L356.1 554.2 L351.1 555.9 L346.0 557.4 L340.9 558.7 L335.7 559.9 L330.5 560.8 L325.2 561.6 L319.9 562.1 L314.6 562.3 L309.3 562.3 L304.0 562.1 L298.7 561.5 L293.4 560.7 L288.2 559.6 L283.1 558.1 L278.1 556.2 L273.3 553.9 L268.6 551.1 L264.0 548.1 L259.7 544.7 L255.5 541.1 L251.5 537.3 L247.7 533.3 L244.0 529.1 L240.5 524.9 L237.2 520.6 L234.0 516.3 L230.9 512.1 L227.8 507.9 L224.9 503.7 L222.0 499.7 L219.1 495.8 L216.2 492.0 L213.2 488.5 L210.2 485.0 L207.1 481.8 L203.8 478.7 L200.5 475.9 L196.9 473.2" stroke-width="1.13" stroke-linecap="round" opacity="0.75"/><path d="M505.0 100.3 L499.5 97.3 L493.7 94.7 L487.7 92.4 L481.7 90.4 L475.5 88.7 L469.3 87.2 L463.0 86.0 L456.7 85.0 L450.5 84.2 L444.2 83.5 L438.0 83.0 L431.9 82.6 L425.8 82.2 L419.7 81.9 L413.8 81.6 L407.9 81.4 L402.1 81.1 L396.3 80.8 L390.7 80.5 L385.0 80.1 L379.5 79.6 L373.9 79.0 L368.4 78.3 L363.0 77.5 L357.5 76.5 L352.1 75.4 L346.6 74.3 L341.0 73.5 L335.5 72.9 L329.9 72.5 L324.3 72.3 L318.7 72.4 L313.1 72.7 L307.5 73.2 L302.0 74.0 L296.4 75.0 L291.0 76.2 L285.6 77.6 L280.2 79.2 L274.9 81.0 L269.7 83.0 L264.5 85.1 L259.5 87.4 L254.5 89.8 L249.6 92.3 L244.7 94.9 L239.9 97.6 L235.2 100.3 L230.5 103.1 L225.9 106.0 L221.3 108.8 L216.8 111.7 L212.3 114.6 L207.8 117.5 L203.4 120.5 L198.9 123.4 L194.5 126.3 L190.0 129.2 L185.6 132.1 L181.1 135.1 L176.7 138.0 L172.2 141.0 L167.8 144.0 L163.3 147.1 L158.9 150.2 L154.5 153.4 L150.1 156.7 L145.7 160.1 L141.4 163.6 L137.2 167.2 L133.1 170.9 L129.0 174.7 L125.1 178.6 L121.3 182.7 L117.6 186.9 L114.1 191.3 L110.7 195.8 L107.6 200.4 L104.6 205.1 L101.8 210.0 L99.2 215.0 L96.8 220.0 L94.7 225.2 L92.7 230.4 L91.0 235.8 L89.5 241.2 L88.1 246.6 L87.0 252.1 L86.1 257.6 L85.3 263.1 L84.7 268.6 L84.3 274.2 L84.0 279.7 L83.8 285.2 L83.7 290.7 L83.7 296.1 L83.8 301.6 L83.9 307.0 L84.1 312.4 L84.3 317.8 L84.6 323.1 L84.9 328.5 L85.2 333.8 L85.5 339.1 L85.8 344.4 L86.1 349.7 L86.4 355.0 L86.7 360.4 L87.0 365.7 L87.4 371.0 L87.8 376.4 L88.2 381.8 L88.7 387.2 L89.2 392.6 L89.9 398.0 L90.9 403.4 L92.3 408.7 L94.0 413.8 L96.1 418.9 L98.4 423.8 L101.0 428.6 L103.9 433.2 L107.1 437.7 L110.5 442.0 L114.1 446.1 L117.9 450.1 L121.9 453.9 L126.0 457.5 L130.3 460.9 L134.7 464.2 L139.2 467.3 L143.8 470.3 L148.3 473.1 L152.9 475.8 L157.5 478.5 L162.0 481.0 L166.5 483.6 L170.9 486.1 L175.2 488.6 L179.3 491.2" stroke-width="1.29" stroke-linecap="round" opacity="0.80"/><path d="M490.2 152.1 L494.9 155.6 L499.5 159.2 L503.9 163.1 L508.1 167.1 L512.1 171.4 L515.9 175.9 L519.5 180.5 L522.9 185.3 L526.0 190.2 L528.9 195.3 L531.6 200.5 L534.0 205.8 L536.3 211.2 L538.3 216.7 L540.1 222.2 L541.7 227.8 L543.2 233.4 L544.5 239.0 L545.8 244.6 L546.9 250.2 L548.0 255.7 L549.0 261.2 L549.8 266.8 L550.3 272.4 L550.7 278.0 L551.0 283.5 L551.1 289.1 L551.1 294.6 L551.0 300.1 L550.8 305.6 L550.5 311.0 L550.3 316.4 L550.0 321.7 L549.7 327.1 L549.4 332.4 L549.1 337.7 L548.8 343.0 L548.5 348.3 L548.2 353.7 L548.0 359.0 L547.7 364.3 L547.4 369.7 L547.1 375.1 L546.8 380.6 L546.3 386.0 L545.8 391.5 L545.2 397.0 L544.4 402.5 L543.5 408.0 L542.4 413.5 L541.1 419.0 L539.7 424.4 L538.0 429.8 L536.1 435.1 L533.9 440.3 L531.5 445.4 L528.9 450.4 L526.0 455.2 L522.9 459.9 L519.5 464.5 L516.0 468.9 L512.2 473.1 L508.3 477.1 L504.1 480.9 L499.9 484.6 L495.5 488.1 L490.9 491.4 L486.3 494.6 L481.6 497.6 L476.9 500.5 L472.1 503.2 L467.3 505.9 L462.5 508.5 L457.7 511.0 L452.9 513.5 L448.1 515.9 L443.3 518.3 L438.5 520.7 L433.8 523.1 L429.0 525.5 L424.3 527.9 L419.5 530.4 L414.8 532.8 L410.0 535.3 L405.2 537.7 L400.4 540.1 L395.5 542.5 L390.6 544.9 L385.6 547.2 L380.5 549.4 L375.4 551.6 L370.2 553.5 L364.9 555.4 L359.5 557.1 L354.1 558.5 L348.6 559.8 L343.1 560.8 L337.5 561.6 L331.9 562.2 L326.3 562.4 L320.6 562.4 L315.0 562.1 L309.4 561.5 L303.8 560.7 L298.3 559.6 L292.8 558.2 L287.4 556.6 L282.1 554.8 L276.8 552.7 L271.7 550.5 L266.6 548.1 L261.6 545.6 L256.7 543.0 L251.9 540.2 L247.2 537.4 L242.5 534.5 L237.9 531.6 L233.4 528.7 L228.9 525.8 L224.3 523.1 L219.4 520.8 L214.3 518.9 L208.9 517.3 L203.3 516.0 L197.4 514.8 L191.3 513.8 L185.0 512.8 L178.5 511.7 L171.8 510.6 L165.0 509.4 L158.2 508.0 L151.3 506.4 L144.5 504.4 L137.8 502.1 L131.3 499.5 L125.0 496.4 L119.1 492.9 L113.5 488.9 L108.5 484.5 L104.1 479.6" stroke-width="1.55" stroke-linecap="round" opacity="0.52"/><path d="M515.2 127.8 L511.1 123.8 L506.7 120.1 L502.1 116.7 L497.3 113.6 L492.3 110.8 L487.1 108.3 L481.8 106.0 L476.4 104.0 L470.9 102.2 L465.3 100.6 L459.7 99.2 L454.1 98.0 L448.4 97.0 L442.8 96.1 L437.2 95.3 L431.6 94.7 L426.1 94.1 L420.6 93.6 L415.1 93.1 L409.8 92.6 L404.4 92.0 L399.2 91.5 L394.0 90.8 L388.9 90.0 L383.8 89.1 L378.7 88.2 L373.6 87.4 L368.5 86.8 L363.4 86.2 L358.3 85.8 L353.2 85.5 L348.0 85.4 L342.9 85.4 L337.8 85.4 L332.7 85.7 L327.6 86.0 L322.5 86.5 L317.4 87.0 L312.4 87.7 L307.4 88.5 L302.4 89.5 L297.4 90.5 L292.5 91.6 L287.6 92.8 L282.7 94.2 L277.9 95.6 L273.1 97.1 L268.4 98.8 L263.6 100.5 L259.0 102.3 L254.4 104.2 L249.8 106.1 L245.3 108.2 L240.8 110.3 L236.3 112.5 L231.9 114.8 L227.6 117.2 L223.3 119.6 L219.1 122.1 L214.9 124.7 L210.7 127.3 L206.6 130.0 L202.5 132.8 L198.5 135.6 L194.6 138.5 L190.7 141.4 L186.8 144.4 L183.0 147.5 L179.2 150.6 L175.5 153.8 L171.9 157.1 L168.3 160.4 L164.7 163.7 L161.2 167.1 L157.7 170.6 L154.3 174.2 L151.0 177.7 L147.7 181.4 L144.5 185.1 L141.3 188.9 L138.2 192.7 L135.1 196.6 L132.1 200.5 L129.2 204.5 L126.4 208.5 L123.6 212.7 L120.9 216.8 L118.2 221.0 L115.7 225.3 L113.2 229.7 L110.8 234.1 L108.4 238.5 L106.2 243.0 L104.1 247.6 L102.0 252.2 L100.0 256.8 L98.2 261.5 L96.4 266.3 L94.8 271.1 L93.2 275.9 L91.8 280.8 L90.4 285.7 L89.2 290.7 L88.1 295.6 L87.1 300.7 L86.2 305.7 L85.5 310.8 L84.9 315.9 L84.4 321.0 L84.0 326.1 L83.7 331.2 L83.6 336.4 L83.6 341.5 L83.8 346.7 L84.0 351.8 L84.6 357.0 L85.5 362.0 L86.9 367.0 L88.5 372.0 L90.5 376.8 L92.8 381.5 L95.3 386.1 L98.1 390.6 L101.1 395.0 L104.2 399.2 L107.5 403.3 L111.0 407.3 L114.5 411.1 L118.1 414.8 L121.8 418.5 L125.5 422.0 L129.2 425.4 L132.8 428.8 L136.4 432.1 L140.0 435.3 L143.4 438.6 L146.8 441.8 L150.0 445.1 L153.1 448.3 L156.0 451.7" stroke-width="0.82" stroke-linecap="round" opacity="0.72"/><path d="M450.4 134.2 L446.5 131.2 L442.6 128.1 L438.6 125.1 L434.6 122.0 L430.5 119.0 L426.3 116.0 L422.1 113.1 L417.8 110.3 L413.4 107.6 L408.9 104.9 L404.4 102.5 L399.7 100.1 L395.0 97.9 L390.2 95.9 L385.3 94.1 L380.3 92.5 L375.3 91.1 L370.2 89.9 L365.1 89.0 L359.9 88.3 L354.7 87.8 L349.5 87.6 L344.3 87.7 L339.1 88.1 L333.9 88.7 L328.7 89.4 L323.6 90.1 L318.5 90.9 L313.4 91.8 L308.4 92.7 L303.3 93.6 L298.3 94.6 L293.3 95.6 L288.4 96.6 L283.4 97.6 L278.4 98.7 L273.5 99.7 L268.5 100.8 L263.5 101.9 L258.6 103.1 L253.6 104.3 L248.6 105.5 L243.6 106.8 L238.6 108.1 L233.6 109.5 L228.6 110.9 L223.6 112.5 L218.6 114.1 L213.6 115.8 L208.7 117.7 L203.7 119.6 L198.8 121.7 L194.0 123.9 L189.1 126.2 L184.4 128.6 L179.7 131.3 L175.1 134.0 L170.5 136.9 L166.1 140.0 L161.8 143.2 L157.6 146.6 L153.5 150.1 L149.5 153.8 L145.7 157.6 L142.0 161.6 L138.5 165.7 L135.2 169.9 L132.0 174.3 L128.9 178.7 L126.1 183.3 L123.3 188.0 L120.8 192.7 L118.4 197.6 L116.2 202.5 L114.1 207.4 L112.2 212.4 L110.4 217.5 L108.8 222.5 L107.3 227.6 L105.9 232.8 L104.6 237.9 L103.5 243.0 L102.4 248.2 L101.4 253.3 L100.5 258.4 L99.6 263.5 L98.9 268.6 L98.1 273.7 L97.4 278.8 L96.8 283.9 L96.1 288.9 L95.5 294.0 L95.0 299.0 L94.4 304.1 L93.9 309.1 L93.4 314.2 L92.9 319.2 L92.4 324.3 L92.0 329.4 L91.6 334.5 L91.2 339.6 L90.9 344.7 L90.6 349.9 L90.4 355.1 L90.3 360.3 L90.3 365.6 L90.3 370.8 L90.4 376.1 L90.6 381.4 L91.0 386.7 L91.5 392.0 L92.1 397.3 L92.9 402.6 L93.8 407.9 L94.9 413.1 L96.1 418.4 L97.3 423.7 L98.4 429.1 L99.4 434.5 L100.4 440.0 L101.4 445.6 L102.5 451.3 L103.6 457.0 L104.9 462.7 L106.3 468.4 L107.8 474.1 L109.5 479.8 L111.4 485.5 L113.5 491.1 L115.8 496.6 L118.4 502.0 L121.2 507.3 L124.3 512.4 L127.6 517.3 L131.2 522.1 L135.0 526.6 L139.2 530.8 L143.5 534.8 L148.2 538.5 L153.1 541.8" stroke-width="0.92" stroke-linecap="round" opacity="0.50"/><path d="M517.2 193.2 L513.7 189.0 L510.3 184.8 L507.0 180.5 L503.8 176.1 L500.7 171.6 L497.6 167.1 L494.4 162.5 L491.2 157.9 L488.0 153.2 L484.7 148.6 L481.3 144.0 L477.7 139.4 L474.0 134.9 L470.2 130.5 L466.2 126.3 L462.0 122.2 L457.7 118.3 L453.1 114.6 L448.4 111.2 L443.5 108.0 L438.4 105.1 L433.3 102.2 L428.2 99.4 L423.0 96.7 L417.7 94.1 L412.3 91.6 L406.9 89.2 L401.4 86.9 L395.8 84.8 L390.2 82.8 L384.5 81.0 L378.8 79.3 L373.0 77.7 L367.2 76.3 L361.3 75.1 L355.4 74.0 L349.4 73.1 L343.4 72.4 L337.4 71.9 L331.4 71.6 L325.4 71.4 L319.3 71.5 L313.3 71.7 L307.3 72.1 L301.2 72.7 L295.2 73.5 L289.3 74.5 L283.4 75.7 L277.5 77.1 L271.6 78.6 L265.9 80.3 L260.1 82.2 L254.5 84.3 L248.9 86.5 L243.4 88.9 L238.0 91.4 L232.6 94.1 L227.3 96.9 L222.1 99.8 L217.0 102.9 L212.0 106.1 L207.1 109.4 L202.2 112.8 L197.5 116.3 L192.8 119.9 L188.2 123.5 L183.7 127.3 L179.3 131.1 L175.0 135.0 L170.7 139.0 L166.5 143.0 L162.4 147.1 L158.4 151.3 L154.4 155.5 L150.5 159.8 L146.6 164.1 L142.9 168.5 L139.2 172.9 L135.5 177.4 L132.0 181.9 L128.4 186.5 L125.0 191.1 L121.6 195.8 L118.3 200.6 L115.1 205.4 L111.9 210.3 L108.8 215.2 L105.8 220.3 L102.9 225.3 L100.1 230.5 L97.4 235.7 L94.7 240.9 L92.2 246.3 L89.8 251.7 L87.5 257.2 L85.4 262.7 L83.3 268.3 L81.4 274.0 L79.7 279.7 L78.1 285.5 L76.7 291.3 L75.4 297.1 L74.3 303.1 L73.4 309.0 L72.6 315.0 L72.0 321.0 L71.6 327.0 L71.4 333.1 L71.4 339.1 L71.6 345.1 L72.0 351.2 L72.5 357.2 L73.3 363.2 L74.2 369.2 L75.4 375.1 L76.7 381.0 L78.2 386.8 L79.9 392.6 L81.7 398.4 L83.7 404.0 L86.0 409.6 L88.7 415.0 L91.9 420.2 L95.4 425.2 L99.2 430.0 L103.4 434.5 L107.7 438.9 L112.3 443.0 L117.0 447.0 L121.7 450.8 L126.6 454.4 L131.5 457.9 L136.3 461.3 L141.1 464.6 L145.8 467.8 L150.4 471.1 L154.8 474.3 L159.1 477.6 L163.2 481.0 L167.1 484.5" stroke-width="0.77" stroke-linecap="round" opacity="0.66"/><path d="M455.6 199.7 L458.7 202.5 L461.9 205.1 L465.5 207.5 L469.2 209.8 L473.2 212.0 L477.3 214.2 L481.6 216.3 L486.0 218.5 L490.5 220.8 L495.1 223.1 L499.7 225.6 L504.3 228.2 L508.8 230.9 L513.2 233.9 L517.5 237.1 L521.6 240.4 L525.5 244.0 L529.1 247.8 L532.4 251.9 L535.3 256.1 L537.7 260.6 L539.7 265.2 L541.3 270.0 L542.9 274.8 L544.3 279.6 L545.6 284.5 L546.9 289.4 L548.0 294.3 L549.0 299.3 L549.9 304.3 L550.7 309.3 L551.4 314.3 L551.9 319.4 L552.3 324.5 L552.6 329.6 L552.8 334.7 L552.9 339.8 L552.8 344.9 L552.6 350.0 L552.3 355.1 L551.8 360.2 L551.2 365.3 L550.5 370.4 L549.7 375.5 L548.7 380.5 L547.6 385.6 L546.3 390.6 L545.0 395.5 L543.5 400.5 L541.8 405.3 L540.1 410.2 L538.2 415.0 L536.2 419.7 L534.1 424.4 L531.8 429.0 L529.4 433.6 L526.9 438.1 L524.3 442.5 L521.6 446.9 L518.8 451.2 L515.8 455.4 L512.8 459.6 L509.6 463.6 L506.4 467.6 L503.0 471.5 L499.6 475.3 L496.1 479.0 L492.5 482.6 L488.8 486.1 L485.0 489.5 L481.1 492.8 L477.2 496.1 L473.2 499.2 L469.1 502.3 L465.0 505.2 L460.8 508.0 L456.5 510.8 L452.2 513.4 L447.8 516.0 L443.4 518.4 L439.0 520.8 L434.5 523.0 L429.9 525.2 L425.3 527.2 L420.7 529.2 L416.0 531.0 L411.3 532.8 L406.6 534.4 L401.9 536.0 L397.1 537.4 L392.3 538.8 L387.5 540.1 L382.6 541.3 L377.7 542.3 L372.8 543.3 L367.9 544.2 L363.0 545.0 L358.1 545.7 L353.1 546.3 L348.2 546.8 L343.2 547.2 L338.2 547.5 L333.3 547.7 L328.3 547.8 L323.3 547.9 L318.3 547.8 L313.3 547.6 L308.3 547.3 L303.3 546.9 L298.3 546.4 L293.3 545.8 L288.4 545.2 L283.4 544.3 L278.4 543.4 L273.5 542.4 L268.6 541.3 L263.7 540.1 L258.8 538.7 L253.9 537.4 L248.9 536.3 L243.8 535.3 L238.6 534.4 L233.4 533.6 L228.0 532.8 L222.5 531.9 L217.0 531.1 L211.4 530.1 L205.8 529.1 L200.2 527.9 L194.5 526.5 L188.9 525.0 L183.3 523.2 L177.8 521.3 L172.3 519.0 L167.1 516.5 L161.9 513.7 L157.0 510.6 L152.3 507.2 L147.9 503.4 L143.8 499.4" stroke-width="0.81" stroke-linecap="round" opacity="0.92"/><path d="M441.6 166.2 L446.1 168.3 L450.7 170.3 L455.4 172.2 L460.3 174.1 L465.3 176.0 L470.3 177.9 L475.5 179.9 L480.7 182.0 L485.9 184.2 L491.1 186.6 L496.3 189.1 L501.5 191.8 L506.6 194.7 L511.6 197.8 L516.5 201.1 L521.2 204.7 L525.7 208.5 L529.9 212.6 L534.0 216.8 L537.7 221.3 L541.2 226.0 L544.3 230.9 L547.1 236.1 L549.5 241.3 L551.5 246.8 L553.1 252.4 L554.3 258.1 L555.3 263.8 L556.1 269.6 L556.7 275.3 L557.2 281.1 L557.6 286.8 L557.9 292.5 L558.0 298.2 L558.1 303.9 L558.1 309.5 L558.0 315.2 L557.8 320.8 L557.6 326.4 L557.3 332.0 L557.0 337.5 L556.6 343.1 L556.2 348.7 L555.8 354.2 L555.3 359.8 L554.7 365.3 L554.1 370.9 L553.5 376.5 L552.8 382.0 L552.0 387.6 L551.1 393.2 L550.2 398.9 L549.1 404.5 L547.9 410.1 L546.6 415.7 L545.2 421.3 L543.6 426.9 L541.8 432.4 L539.9 437.9 L537.8 443.3 L535.5 448.7 L533.0 454.0 L530.3 459.2 L527.4 464.4 L524.4 469.4 L521.1 474.3 L517.6 479.0 L514.0 483.6 L510.1 488.1 L506.1 492.4 L501.9 496.5 L497.6 500.4 L493.1 504.2 L488.5 507.8 L483.7 511.2 L478.8 514.5 L473.9 517.6 L468.8 520.5 L463.7 523.2 L458.5 525.8 L453.2 528.2 L447.9 530.5 L442.6 532.7 L437.2 534.7 L431.9 536.6 L426.5 538.5 L421.1 540.2 L415.7 541.9 L410.3 543.5 L404.9 545.0 L399.5 546.5 L394.1 547.9 L388.7 549.3 L383.3 550.6 L377.9 551.9 L372.5 553.2 L367.0 554.4 L361.6 555.6 L356.1 556.7 L350.6 557.7 L345.0 558.7 L339.4 559.7 L333.8 560.5 L328.1 561.2 L322.4 561.9 L316.7 562.4 L310.9 562.8 L305.1 563.0 L299.3 563.1 L293.5 563.0 L287.7 562.7 L281.9 562.2 L276.0 561.6 L270.2 560.7 L264.4 559.8 L258.6 558.9 L252.7 557.9 L246.8 556.8 L240.9 555.6 L235.0 554.3 L229.1 552.8 L223.2 551.2 L217.3 549.5 L211.5 547.5 L205.7 545.4 L200.0 543.1 L194.3 540.5 L188.8 537.8 L183.3 534.9 L177.9 531.7 L172.6 528.4 L167.5 524.9 L162.5 521.1 L157.6 517.2 L153.0 513.0 L148.4 508.7 L144.1 504.2 L140.0 499.5 L136.1 494.6 L132.4 489.6" stroke-width="1.59" stroke-linecap="round" opacity="0.88"/><path d="M474.6 154.9 L478.5 158.1 L482.5 161.2 L486.5 164.3 L490.7 167.4 L494.9 170.4 L499.1 173.4 L503.4 176.5 L507.8 179.6 L512.2 182.7 L516.6 185.9 L521.0 189.2 L525.4 192.6 L529.7 196.1 L534.0 199.7 L538.2 203.5 L542.4 207.4 L546.3 211.5 L550.2 215.7 L553.8 220.0 L557.3 224.6 L560.5 229.3 L563.5 234.1 L566.2 239.1 L568.7 244.2 L570.8 249.5 L572.8 254.8 L574.6 260.2 L576.2 265.6 L577.6 271.1 L578.8 276.7 L579.8 282.3 L580.6 287.9 L581.1 293.6 L581.5 299.2 L581.7 304.9 L581.7 310.5 L581.5 316.2 L581.1 321.8 L580.6 327.5 L579.9 333.0 L579.0 338.6 L578.0 344.1 L576.9 349.6 L575.7 355.0 L574.3 360.4 L572.9 365.7 L571.4 371.0 L569.7 376.3 L568.1 381.5 L566.3 386.7 L564.5 391.8 L562.7 396.9 L560.8 402.0 L558.9 407.0 L556.9 412.1 L554.9 417.1 L552.9 422.0 L550.8 427.0 L548.7 432.0 L546.6 436.9 L544.4 441.9 L542.2 446.8 L539.9 451.7 L537.6 456.7 L535.2 461.6 L532.7 466.4 L530.1 471.3 L527.5 476.2 L524.7 481.0 L521.9 485.7 L518.9 490.5 L515.8 495.1 L512.6 499.7 L509.3 504.3 L505.9 508.7 L502.3 513.1 L498.6 517.3 L494.7 521.5 L490.7 525.5 L486.6 529.3 L482.3 533.1 L477.9 536.7 L473.4 540.1 L468.7 543.3 L463.9 546.4 L459.0 549.3 L454.1 552.0 L449.0 554.6 L443.8 556.9 L438.6 559.1 L433.3 561.1 L427.9 562.9 L422.5 564.5 L417.0 565.9 L411.5 567.2 L406.0 568.3 L400.4 569.2 L394.9 570.0 L389.3 570.7 L383.8 571.2 L378.2 571.7 L372.7 572.0 L367.2 572.2 L361.7 572.3 L356.2 572.3 L350.7 572.3 L345.3 572.2 L339.9 572.0 L334.5 571.8 L329.1 571.6 L323.7 571.3 L318.3 570.9 L312.9 570.6 L307.6 570.1 L302.2 569.7 L296.8 569.2 L291.5 568.6 L286.1 567.8 L280.8 566.8 L275.5 565.7 L270.3 564.4 L265.1 562.9 L260.0 561.3 L254.9 559.5 L249.8 557.6 L244.8 555.6 L239.9 553.4 L235.0 551.2 L230.2 548.8 L225.4 546.3 L220.7 543.7 L216.1 541.0 L211.5 538.2 L207.0 535.4 L202.5 532.4 L198.1 529.4 L193.8 526.4 L189.4 523.2 L185.2 520.0 L180.9 516.8" stroke-width="0.80" stroke-linecap="round" opacity="0.85"/><path d="M457.7 119.5 L463.1 122.9 L468.3 126.6 L473.2 130.6 L477.8 135.0 L482.2 139.5 L486.4 144.3 L490.4 149.3 L494.1 154.4 L497.6 159.7 L500.9 165.0 L504.1 170.4 L507.0 175.9 L509.9 181.4 L512.6 186.9 L515.3 192.3 L517.8 197.8 L520.4 203.2 L522.9 208.6 L525.5 213.9 L528.1 219.1 L530.8 224.3 L533.6 229.4 L536.5 234.5 L539.3 239.7 L542.0 245.0 L544.5 250.3 L546.8 255.7 L549.0 261.2 L551.0 266.8 L552.8 272.4 L554.5 278.1 L555.9 283.9 L557.2 289.7 L558.3 295.6 L559.2 301.4 L559.9 307.3 L560.4 313.3 L560.8 319.2 L560.9 325.2 L560.8 331.1 L560.6 337.0 L560.1 343.0 L559.5 348.9 L558.6 354.7 L557.6 360.6 L556.4 366.4 L555.0 372.1 L553.5 377.8 L551.8 383.5 L549.9 389.0 L547.9 394.5 L545.7 400.0 L543.3 405.3 L540.8 410.6 L538.2 415.8 L535.4 420.9 L532.5 426.0 L529.5 430.9 L526.4 435.8 L523.1 440.5 L519.8 445.2 L516.3 449.8 L512.8 454.2 L509.1 458.6 L505.4 462.9 L501.6 467.1 L497.7 471.2 L493.7 475.3 L489.7 479.2 L485.6 483.1 L481.4 486.8 L477.1 490.5 L472.8 494.1 L468.5 497.6 L464.0 501.0 L459.5 504.3 L455.0 507.6 L450.4 510.7 L445.7 513.8 L441.0 516.8 L436.2 519.7 L431.3 522.5 L426.4 525.3 L421.5 527.9 L416.5 530.5 L411.4 532.9 L406.3 535.3 L401.1 537.5 L395.8 539.7 L390.5 541.7 L385.2 543.7 L379.8 545.5 L374.3 547.2 L368.8 548.7 L363.2 550.2 L357.6 551.5 L351.9 552.7 L346.2 553.7 L340.5 554.6 L334.7 555.3 L328.9 555.9 L323.1 556.3 L317.2 556.5 L311.4 556.6 L305.5 556.5 L299.6 556.2 L293.7 555.8 L287.9 555.2 L282.0 554.4 L276.2 553.4 L270.4 552.2 L264.6 550.8 L258.8 549.3 L253.2 547.6 L247.5 545.6 L242.0 543.5 L236.5 541.3 L231.1 538.8 L225.8 535.9 L220.8 532.7 L216.0 529.2 L211.4 525.4 L207.0 521.4 L202.8 517.1 L198.9 512.6 L195.1 508.0 L191.6 503.2 L188.3 498.2 L185.2 493.2 L182.2 488.2 L179.4 483.1 L176.8 477.9 L174.3 472.8 L171.8 467.7 L169.5 462.6 L167.3 457.6 L165.0 452.6 L162.8 447.7 L160.5 442.9 L158.2 438.1" stroke-width="0.73" stroke-linecap="round" opacity="0.50"/><path d="M462.6 181.4 L465.8 184.6 L469.1 187.7 L472.4 190.7 L475.9 193.6 L479.4 196.5 L482.9 199.5 L486.5 202.4 L490.2 205.3 L493.9 208.3 L497.6 211.3 L501.3 214.3 L505.1 217.5 L508.8 220.7 L512.5 224.0 L516.1 227.5 L519.7 231.0 L523.2 234.7 L526.6 238.4 L529.9 242.4 L533.0 246.4 L536.0 250.6 L538.8 254.9 L541.3 259.3 L543.6 263.8 L545.7 268.5 L547.5 273.3 L549.1 278.1 L550.7 283.0 L552.1 287.9 L553.4 292.8 L554.5 297.8 L555.5 302.9 L556.4 307.9 L557.2 313.0 L557.8 318.1 L558.3 323.3 L558.6 328.4 L558.8 333.6 L558.8 338.8 L558.7 343.9 L558.4 349.1 L557.9 354.3 L557.3 359.4 L556.6 364.5 L555.7 369.6 L554.6 374.7 L553.4 379.7 L552.0 384.7 L550.6 389.6 L548.9 394.5 L547.1 399.4 L545.2 404.1 L543.2 408.9 L541.0 413.5 L538.7 418.1 L536.3 422.7 L533.8 427.1 L531.2 431.5 L528.5 435.8 L525.7 440.1 L522.8 444.2 L519.8 448.3 L516.7 452.3 L513.6 456.3 L510.3 460.2 L507.1 464.0 L503.7 467.7 L500.3 471.4 L496.8 475.0 L493.3 478.5 L489.7 482.0 L486.1 485.4 L482.4 488.8 L478.7 492.1 L474.9 495.3 L471.1 498.5 L467.2 501.6 L463.3 504.6 L459.4 507.6 L455.4 510.6 L451.3 513.4 L447.2 516.3 L443.1 519.0 L438.9 521.7 L434.7 524.4 L430.4 526.9 L426.1 529.4 L421.7 531.8 L417.2 534.2 L412.7 536.5 L408.2 538.6 L403.6 540.7 L399.0 542.8 L394.3 544.7 L389.5 546.5 L384.7 548.2 L379.9 549.8 L375.0 551.3 L370.1 552.6 L365.1 553.9 L360.1 555.0 L355.0 555.9 L349.9 556.8 L344.8 557.5 L339.7 558.0 L334.6 558.4 L329.4 558.7 L324.2 558.8 L319.1 558.8 L313.9 558.6 L308.7 558.2 L303.6 557.7 L298.5 557.0 L293.4 556.2 L288.3 555.3 L283.1 554.5 L278.0 553.8 L272.8 553.2 L267.5 552.7 L262.2 552.1 L256.9 551.6 L251.5 551.1 L246.0 550.5 L240.5 549.9 L235.0 549.2 L229.5 548.3 L223.9 547.4 L218.3 546.3 L212.7 545.0 L207.2 543.6 L201.7 541.9 L196.2 540.1 L190.9 538.0 L185.6 535.7 L180.4 533.1 L175.4 530.3 L170.6 527.2 L166.0 523.8 L161.5 520.2 L157.4 516.2" stroke-width="1.18" stroke-linecap="round" opacity="0.52"/><path d="M439.5 163.3 L443.8 165.8 L448.1 168.2 L452.6 170.6 L457.1 173.0 L461.6 175.4 L466.2 177.9 L470.8 180.4 L475.5 182.9 L480.1 185.6 L484.7 188.4 L489.3 191.4 L493.8 194.5 L498.2 197.7 L502.5 201.1 L506.7 204.7 L510.7 208.5 L514.6 212.5 L518.2 216.6 L521.7 221.0 L524.9 225.5 L527.8 230.2 L530.4 235.0 L532.6 240.1 L534.5 245.2 L536.3 250.5 L537.9 255.7 L539.4 261.0 L540.7 266.4 L542.0 271.7 L543.1 277.0 L544.1 282.4 L545.0 287.8 L545.8 293.2 L546.5 298.6 L547.1 304.0 L547.6 309.4 L548.0 314.8 L548.3 320.3 L548.5 325.7 L548.5 331.1 L548.5 336.6 L548.4 342.0 L548.2 347.4 L547.8 352.9 L547.4 358.3 L546.9 363.8 L546.2 369.2 L545.4 374.6 L544.6 380.0 L543.5 385.4 L542.4 390.8 L541.2 396.2 L539.8 401.5 L538.2 406.8 L536.6 412.1 L534.8 417.4 L532.9 422.6 L530.8 427.7 L528.6 432.8 L526.2 437.9 L523.7 442.9 L521.1 447.8 L518.3 452.6 L515.3 457.4 L512.2 462.0 L509.0 466.6 L505.6 471.1 L502.1 475.5 L498.5 479.7 L494.7 483.9 L490.8 487.9 L486.8 491.8 L482.7 495.6 L478.4 499.3 L474.1 502.8 L469.6 506.2 L465.1 509.4 L460.4 512.5 L455.7 515.5 L450.9 518.3 L446.0 521.0 L441.1 523.6 L436.1 526.0 L431.0 528.3 L425.9 530.4 L420.7 532.4 L415.5 534.3 L410.3 536.0 L405.0 537.7 L399.7 539.2 L394.4 540.5 L389.1 541.8 L383.7 542.9 L378.4 544.0 L373.0 544.9 L367.6 545.7 L362.2 546.4 L356.8 547.0 L351.4 547.5 L346.0 547.9 L340.5 548.2 L335.1 548.4 L329.7 548.5 L324.2 548.5 L318.8 548.4 L313.4 548.2 L307.9 547.9 L302.5 547.5 L297.0 547.0 L291.6 546.3 L286.2 545.6 L280.8 544.7 L275.4 543.7 L270.0 542.6 L264.6 541.3 L259.3 540.0 L254.0 538.4 L248.8 536.5 L243.8 534.3 L238.9 531.7 L234.1 528.9 L229.5 525.8 L225.1 522.5 L220.8 519.0 L216.7 515.3 L212.8 511.4 L209.0 507.4 L205.4 503.2 L202.0 499.0 L198.7 494.7 L195.5 490.3 L192.4 485.9 L189.5 481.5 L186.6 477.1 L183.8 472.7 L181.0 468.4 L178.3 464.0 L175.5 459.7 L172.8 455.5 L170.0 451.4" stroke-width="1.19" stroke-linecap="round" opacity="0.49"/><path d="M522.4 178.6 L526.0 182.9 L529.4 187.3 L532.5 191.9 L535.5 196.7 L538.4 201.5 L541.0 206.4 L543.4 211.5 L545.7 216.6 L547.8 221.8 L549.7 227.0 L551.5 232.3 L553.1 237.6 L554.6 242.9 L556.0 248.3 L557.2 253.7 L558.3 259.1 L559.2 264.5 L560.1 269.9 L560.9 275.3 L561.6 280.7 L562.3 286.0 L562.8 291.4 L563.4 296.8 L563.9 302.2 L564.3 307.5 L564.8 312.9 L565.1 318.2 L565.3 323.6 L565.4 329.0 L565.3 334.4 L565.1 339.7 L564.8 345.1 L564.3 350.5 L563.6 355.8 L562.9 361.1 L562.0 366.4 L560.9 371.7 L559.7 376.9 L558.4 382.1 L557.0 387.2 L555.4 392.4 L553.7 397.4 L551.9 402.4 L549.9 407.4 L547.8 412.3 L545.7 417.2 L543.4 422.0 L540.9 426.7 L538.4 431.4 L535.8 436.0 L533.1 440.5 L530.3 445.0 L527.3 449.4 L524.3 453.7 L521.2 458.0 L518.0 462.1 L514.7 466.2 L511.4 470.3 L507.9 474.2 L504.4 478.1 L500.8 481.9 L497.1 485.6 L493.4 489.2 L489.6 492.8 L485.7 496.3 L481.8 499.7 L477.7 503.0 L473.7 506.2 L469.6 509.4 L465.4 512.5 L461.1 515.5 L456.8 518.4 L452.5 521.2 L448.1 523.9 L443.6 526.6 L439.1 529.2 L434.6 531.7 L430.0 534.1 L425.3 536.4 L420.6 538.6 L415.9 540.7 L411.1 542.8 L406.3 544.7 L401.4 546.6 L396.5 548.3 L391.5 550.0 L386.5 551.6 L381.5 553.0 L376.5 554.4 L371.4 555.6 L366.2 556.8 L361.1 557.8 L355.9 558.7 L350.7 559.5 L345.5 560.2 L340.2 560.8 L334.9 561.3 L329.7 561.6 L324.4 561.8 L319.1 561.9 L313.7 561.9 L308.4 561.7 L303.1 561.4 L297.8 561.0 L292.5 560.5 L287.2 559.8 L281.9 558.9 L276.6 558.0 L271.4 556.9 L266.2 555.7 L261.0 554.3 L255.8 552.8 L250.7 551.2 L245.6 549.4 L240.6 547.5 L235.8 545.1 L231.1 542.5 L226.5 539.6 L222.2 536.5 L217.9 533.1 L213.9 529.5 L210.0 525.8 L206.3 521.8 L202.8 517.7 L199.4 513.5 L196.2 509.3 L193.1 504.9 L190.2 500.4 L187.4 496.0 L184.7 491.5 L182.2 487.0 L179.7 482.5 L177.3 478.0 L174.9 473.6 L172.6 469.2 L170.3 464.8 L168.0 460.5 L165.7 456.3 L163.3 452.2 L160.9 448.1" stroke-width="1.49" stroke-linecap="round" opacity="0.79"/><path d="M488.4 222.0 L490.6 225.1 L493.2 228.0 L496.1 230.7 L499.4 233.3 L503.0 235.8 L506.8 238.2 L510.8 240.6 L515.0 243.1 L519.3 245.6 L523.7 248.3 L528.2 251.0 L532.6 253.9 L536.9 256.9 L541.1 260.1 L545.1 263.5 L548.9 267.1 L552.4 270.9 L555.5 274.8 L558.2 279.0 L560.5 283.3 L562.2 287.7 L563.4 292.3 L564.4 296.9 L565.3 301.5 L566.1 306.2 L566.9 310.9 L567.6 315.6 L568.2 320.3 L568.7 325.0 L569.1 329.8 L569.5 334.6 L569.7 339.4 L569.9 344.1 L569.9 349.0 L569.9 353.8 L569.8 358.6 L569.5 363.4 L569.2 368.2 L568.8 373.1 L568.2 377.9 L567.6 382.7 L566.8 387.5 L566.0 392.3 L565.0 397.1 L563.9 401.8 L562.8 406.6 L561.5 411.3 L560.0 416.0 L558.5 420.7 L556.9 425.3 L555.2 429.9 L553.3 434.4 L551.3 438.9 L549.3 443.4 L547.1 447.8 L544.8 452.2 L542.4 456.5 L539.9 460.7 L537.3 464.9 L534.6 469.0 L531.8 473.0 L528.9 477.0 L525.9 480.9 L522.8 484.8 L519.6 488.5 L516.3 492.2 L512.9 495.8 L509.5 499.3 L505.9 502.7 L502.3 506.0 L498.6 509.2 L494.9 512.4 L491.0 515.4 L487.1 518.4 L483.2 521.3 L479.1 524.0 L475.0 526.7 L470.9 529.3 L466.7 531.8 L462.5 534.2 L458.2 536.4 L453.9 538.6 L449.5 540.7 L445.1 542.7 L440.6 544.6 L436.2 546.4 L431.7 548.2 L427.2 549.8 L422.6 551.3 L418.0 552.8 L413.4 554.1 L408.8 555.4 L404.2 556.5 L399.6 557.6 L394.9 558.6 L390.3 559.6 L385.6 560.4 L381.0 561.2 L376.3 561.8 L371.6 562.4 L366.9 562.9 L362.3 563.4 L357.6 563.7 L352.9 564.0 L348.2 564.3 L343.5 564.4 L338.8 564.5 L334.2 564.5 L329.5 564.4 L324.8 564.3 L320.2 564.1 L315.5 563.8 L310.9 563.4 L306.2 563.0 L301.6 562.5 L296.9 562.0 L292.3 561.3 L287.7 560.7 L283.1 559.9 L278.4 559.3 L273.7 558.9 L268.9 558.5 L264.1 558.3 L259.2 558.1 L254.3 557.9 L249.3 557.7 L244.2 557.5 L239.1 557.2 L233.9 556.9 L228.7 556.5 L223.5 555.9 L218.3 555.2 L213.1 554.3 L208.0 553.3 L202.9 552.0 L197.8 550.5 L192.8 548.8 L188.0 546.8 L183.3 544.6 L178.7 542.0" stroke-width="1.11" stroke-linecap="round" opacity="0.85"/><path d="M414.3 168.1 L418.4 170.4 L422.7 172.5 L427.2 174.2 L431.9 175.8 L436.8 177.2 L441.9 178.4 L447.1 179.6 L452.6 180.8 L458.2 182.0 L463.9 183.2 L469.8 184.6 L475.7 186.1 L481.7 187.8 L487.7 189.6 L493.6 191.8 L499.5 194.2 L505.3 196.9 L510.8 199.9 L516.2 203.3 L521.2 207.0 L525.9 211.0 L530.2 215.4 L534.1 220.2 L537.4 225.2 L540.4 230.5 L543.1 235.9 L545.5 241.4 L547.8 247.0 L549.8 252.7 L551.6 258.5 L553.1 264.4 L554.4 270.3 L555.4 276.2 L556.3 282.2 L556.9 288.2 L557.3 294.2 L557.4 300.2 L557.4 306.2 L557.3 312.1 L556.9 318.1 L556.4 324.0 L555.8 329.9 L555.0 335.7 L554.1 341.5 L553.1 347.3 L552.1 353.0 L550.9 358.7 L549.7 364.4 L548.4 370.0 L547.1 375.6 L545.7 381.2 L544.3 386.8 L542.8 392.3 L541.2 397.9 L539.6 403.4 L538.0 408.9 L536.2 414.5 L534.4 420.0 L532.5 425.5 L530.5 431.0 L528.4 436.5 L526.2 441.9 L523.8 447.4 L521.3 452.8 L518.7 458.1 L515.9 463.4 L512.9 468.6 L509.8 473.7 L506.5 478.7 L503.0 483.6 L499.3 488.4 L495.4 493.0 L491.4 497.5 L487.1 501.8 L482.7 505.9 L478.1 509.9 L473.4 513.7 L468.5 517.2 L463.5 520.6 L458.3 523.7 L453.0 526.6 L447.6 529.3 L442.2 531.9 L436.6 534.2 L431.0 536.3 L425.3 538.2 L419.6 539.9 L413.8 541.5 L408.1 542.9 L402.3 544.2 L396.5 545.3 L390.7 546.3 L384.9 547.2 L379.1 548.0 L373.4 548.7 L367.6 549.3 L361.8 549.9 L356.1 550.4 L350.4 550.8 L344.6 551.2 L338.9 551.5 L333.1 551.8 L327.4 552.0 L321.6 552.1 L315.8 552.2 L310.0 552.2 L304.2 552.2 L298.3 552.0 L292.5 551.7 L286.6 551.4 L280.7 550.9 L274.8 550.2 L268.9 549.4 L263.0 548.5 L257.2 547.3 L251.3 546.0 L245.6 544.3 L240.1 541.9 L234.8 539.1 L229.8 535.8 L225.0 532.0 L220.6 527.9 L216.4 523.4 L212.6 518.5 L209.0 513.4 L205.8 508.1 L202.8 502.7 L200.1 497.0 L197.7 491.3 L195.5 485.6 L193.6 479.8 L191.8 474.1 L190.1 468.5 L188.5 462.9 L187.0 457.5 L185.5 452.3 L184.0 447.2 L182.3 442.4 L180.5 437.7 L178.5 433.3" stroke-width="0.79" stroke-linecap="round" opacity="0.79"/><path d="M458.4 165.4 L462.1 168.9 L466.0 172.3 L469.9 175.6 L473.9 178.9 L478.0 182.0 L482.2 185.1 L486.5 188.2 L490.9 191.3 L495.3 194.3 L499.9 197.5 L504.5 200.6 L509.2 203.9 L513.9 207.2 L518.7 210.6 L523.4 214.2 L528.1 217.9 L532.7 221.8 L537.2 225.9 L541.6 230.1 L545.9 234.5 L550.0 239.1 L553.8 243.9 L557.5 248.8 L560.8 254.0 L563.8 259.3 L566.5 264.8 L568.7 270.5 L570.6 276.2 L572.2 282.1 L573.6 288.0 L574.7 294.0 L575.6 300.0 L576.3 306.1 L576.7 312.1 L576.9 318.2 L576.8 324.3 L576.5 330.4 L576.0 336.4 L575.2 342.4 L574.2 348.4 L573.1 354.4 L571.7 360.2 L570.2 366.1 L568.4 371.8 L566.6 377.5 L564.6 383.2 L562.5 388.7 L560.2 394.2 L557.9 399.7 L555.5 405.0 L553.0 410.4 L550.4 415.6 L547.8 420.8 L545.2 426.0 L542.4 431.1 L539.7 436.2 L536.9 441.3 L534.0 446.3 L531.2 451.3 L528.2 456.3 L525.3 461.3 L522.3 466.2 L519.2 471.1 L516.0 476.0 L512.8 480.9 L509.5 485.8 L506.1 490.6 L502.6 495.4 L499.0 500.1 L495.3 504.8 L491.5 509.3 L487.5 513.9 L483.5 518.3 L479.2 522.5 L474.9 526.7 L470.3 530.8 L465.7 534.6 L460.9 538.4 L456.0 541.9 L450.9 545.2 L445.7 548.4 L440.4 551.4 L434.9 554.1 L429.4 556.6 L423.8 558.9 L418.0 561.0 L412.2 562.8 L406.4 564.4 L400.5 565.8 L394.5 566.9 L388.5 567.9 L382.5 568.6 L376.5 569.2 L370.5 569.5 L364.5 569.7 L358.5 569.7 L352.5 569.6 L346.6 569.3 L340.6 568.9 L334.7 568.3 L328.9 567.7 L323.1 567.0 L317.3 566.2 L311.5 565.3 L305.8 564.4 L300.0 563.4 L294.3 562.3 L288.7 561.2 L283.0 560.1 L277.4 558.9 L271.7 557.7 L266.1 556.4 L260.4 555.1 L254.6 554.1 L248.8 553.2 L242.8 552.4 L236.7 551.7 L230.5 551.1 L224.2 550.5 L217.7 549.9 L211.2 549.2 L204.6 548.5 L197.8 547.6 L191.0 546.6 L184.2 545.4 L177.4 544.0 L170.5 542.3 L163.7 540.4 L157.0 538.2 L150.4 535.7 L143.9 532.8 L137.5 529.6 L131.4 526.1 L125.5 522.3 L119.8 518.1 L114.5 513.5 L109.5 508.6 L104.8 503.4 L100.6 497.8 L96.8 492.0" stroke-width="0.86" stroke-linecap="round" opacity="0.72"/><path d="M483.3 195.2 L480.3 191.5 L477.6 187.8 L474.9 183.8 L472.4 179.8 L469.8 175.5 L467.3 171.2 L464.8 166.8 L462.3 162.2 L459.7 157.6 L457.0 152.9 L454.3 148.2 L451.4 143.5 L448.3 138.8 L445.1 134.2 L441.8 129.6 L438.3 125.2 L434.5 120.8 L430.6 116.7 L426.5 112.7 L422.2 109.0 L417.7 105.6 L413.1 102.5 L408.2 99.7 L403.2 97.3 L398.0 95.2 L392.8 93.4 L387.5 91.7 L382.1 90.1 L376.7 88.8 L371.2 87.6 L365.8 86.6 L360.2 85.7 L354.7 85.1 L349.1 84.6 L343.5 84.3 L338.0 84.2 L332.4 84.3 L326.8 84.6 L321.3 85.0 L315.7 85.7 L310.2 86.4 L304.7 87.4 L299.3 88.5 L293.9 89.8 L288.6 91.2 L283.3 92.8 L278.0 94.5 L272.9 96.3 L267.7 98.3 L262.7 100.4 L257.7 102.6 L252.7 104.9 L247.9 107.3 L243.1 109.8 L238.3 112.4 L233.6 115.0 L229.0 117.7 L224.5 120.5 L219.9 123.4 L215.5 126.3 L211.1 129.3 L206.8 132.3 L202.5 135.4 L198.2 138.6 L194.0 141.7 L189.8 145.0 L185.7 148.2 L181.6 151.6 L177.6 154.9 L173.6 158.4 L169.6 161.8 L165.7 165.3 L161.8 168.9 L157.9 172.6 L154.1 176.3 L150.3 180.0 L146.6 183.8 L143.0 187.7 L139.3 191.7 L135.8 195.7 L132.3 199.9 L128.9 204.1 L125.5 208.3 L122.3 212.7 L119.1 217.1 L116.0 221.7 L113.1 226.3 L110.2 231.0 L107.4 235.7 L104.8 240.6 L102.3 245.5 L100.0 250.5 L97.8 255.6 L95.7 260.8 L93.8 266.0 L92.1 271.3 L90.5 276.7 L89.1 282.0 L87.8 287.5 L86.8 293.0 L85.9 298.5 L85.2 304.0 L84.7 309.6 L84.4 315.2 L84.2 320.7 L84.3 326.3 L84.5 331.9 L84.9 337.5 L85.5 343.0 L86.2 348.5 L87.2 354.0 L88.2 359.4 L89.5 364.8 L90.9 370.2 L92.4 375.5 L94.1 380.8 L96.1 385.9 L98.4 391.0 L101.0 395.9 L103.8 400.7 L106.8 405.3 L110.1 409.8 L113.5 414.2 L117.0 418.4 L120.7 422.5 L124.5 426.5 L128.3 430.3 L132.2 434.0 L136.1 437.7 L140.0 441.2 L143.9 444.7 L147.8 448.1 L151.6 451.4 L155.4 454.7 L159.1 458.0 L162.7 461.4 L166.3 464.7 L169.7 468.1 L173.0 471.6 L176.2 475.1" stroke-width="0.73" stroke-linecap="round" opacity="0.54"/><path d="M487.4 110.3 L482.3 107.7 L477.1 105.6 L471.6 103.9 L466.0 102.5 L460.3 101.4 L454.5 100.6 L448.7 100.0 L443.0 99.6 L437.2 99.4 L431.5 99.2 L425.9 99.1 L420.4 99.1 L414.9 99.0 L409.6 98.8 L404.4 98.5 L399.3 98.0 L394.3 97.3 L389.3 96.4 L384.5 95.2 L379.7 93.6 L375.0 91.9 L370.2 90.2 L365.3 88.6 L360.4 87.2 L355.4 86.0 L350.4 85.0 L345.4 84.2 L340.3 83.5 L335.2 83.1 L330.1 82.9 L325.0 82.9 L319.8 83.1 L314.7 83.5 L309.7 84.1 L304.6 85.0 L299.6 86.0 L294.6 87.2 L289.7 88.6 L284.9 90.2 L280.1 91.9 L275.3 93.8 L270.7 95.8 L266.1 98.0 L261.5 100.2 L257.0 102.5 L252.6 104.8 L248.3 107.3 L244.0 109.7 L239.7 112.2 L235.5 114.8 L231.3 117.3 L227.1 119.8 L223.0 122.4 L218.8 124.9 L214.7 127.4 L210.6 129.9 L206.5 132.4 L202.3 134.9 L198.2 137.4 L194.0 139.9 L189.8 142.4 L185.7 144.9 L181.5 147.5 L177.3 150.1 L173.1 152.7 L168.9 155.4 L164.8 158.2 L160.6 161.0 L156.5 164.0 L152.5 167.0 L148.5 170.1 L144.6 173.4 L140.8 176.8 L137.0 180.3 L133.4 183.9 L129.9 187.6 L126.6 191.5 L123.4 195.5 L120.4 199.6 L117.6 203.9 L114.9 208.3 L112.4 212.7 L110.1 217.3 L108.0 222.0 L106.1 226.7 L104.4 231.5 L102.9 236.4 L101.5 241.4 L100.4 246.3 L99.4 251.4 L98.5 256.4 L97.9 261.4 L97.3 266.5 L96.9 271.5 L96.6 276.6 L96.4 281.6 L96.3 286.6 L96.2 291.6 L96.2 296.5 L96.3 301.5 L96.4 306.4 L96.5 311.2 L96.6 316.1 L96.7 321.0 L96.8 325.8 L97.0 330.6 L97.1 335.5 L97.2 340.3 L97.2 345.1 L97.3 349.9 L97.4 354.8 L97.5 359.7 L97.6 364.6 L97.7 369.5 L97.9 374.4 L98.1 379.4 L98.4 384.3 L98.7 389.3 L99.2 394.4 L99.7 399.4 L100.1 404.5 L100.5 409.6 L100.8 414.9 L101.1 420.2 L101.4 425.6 L101.7 431.1 L102.2 436.6 L102.8 442.1 L103.6 447.6 L104.6 453.1 L105.8 458.5 L107.2 463.9 L109.0 469.1 L111.0 474.3 L113.3 479.3 L115.9 484.1 L118.9 488.7 L122.1 493.1 L125.7 497.2 L129.7 501.1" stroke-width="0.93" stroke-linecap="round" opacity="0.64"/><path d="M505.2 150.0 L508.9 154.4 L512.3 159.1 L515.6 163.9 L518.6 168.8 L521.4 173.9 L524.0 179.0 L526.4 184.2 L528.7 189.5 L530.8 194.8 L532.7 200.2 L534.5 205.6 L536.1 211.0 L537.6 216.4 L539.0 221.7 L540.3 227.1 L541.6 232.5 L542.7 237.8 L543.9 243.1 L544.9 248.3 L546.0 253.5 L547.0 258.7 L548.1 263.9 L549.2 269.0 L550.3 274.1 L551.5 279.2 L552.7 284.2 L554.0 289.3 L555.1 294.4 L556.2 299.5 L557.2 304.7 L558.1 309.9 L558.9 315.1 L559.7 320.3 L560.3 325.6 L560.8 330.9 L561.2 336.2 L561.5 341.5 L561.7 346.9 L561.8 352.2 L561.7 357.6 L561.5 363.0 L561.3 368.4 L560.8 373.8 L560.3 379.1 L559.6 384.5 L558.8 389.9 L557.9 395.3 L556.8 400.6 L555.5 406.0 L554.2 411.3 L552.7 416.6 L551.0 421.8 L549.2 427.0 L547.2 432.2 L545.1 437.3 L542.9 442.3 L540.5 447.3 L538.0 452.2 L535.3 457.1 L532.5 461.9 L529.5 466.5 L526.4 471.2 L523.2 475.7 L519.8 480.1 L516.3 484.4 L512.7 488.6 L509.0 492.7 L505.1 496.7 L501.1 500.5 L497.1 504.3 L492.9 507.9 L488.6 511.4 L484.2 514.8 L479.7 518.0 L475.2 521.2 L470.5 524.1 L465.8 527.0 L461.0 529.7 L456.2 532.3 L451.3 534.7 L446.3 537.0 L441.3 539.2 L436.3 541.2 L431.2 543.2 L426.0 544.9 L420.9 546.6 L415.7 548.1 L410.5 549.5 L405.2 550.8 L400.0 552.0 L394.8 553.0 L389.5 554.0 L384.2 554.8 L378.9 555.5 L373.7 556.1 L368.4 556.6 L363.1 557.0 L357.9 557.3 L352.6 557.5 L347.4 557.6 L342.1 557.6 L336.9 557.5 L331.7 557.3 L326.5 557.1 L321.3 556.7 L316.1 556.3 L310.9 555.8 L305.7 555.2 L300.6 554.5 L295.4 553.8 L290.3 552.9 L285.2 552.0 L280.1 551.0 L275.0 549.9 L269.9 548.9 L264.8 547.8 L259.6 546.9 L254.4 545.9 L249.2 544.9 L243.9 544.0 L238.6 543.0 L233.2 541.9 L227.8 540.8 L222.4 539.7 L216.9 538.4 L211.4 537.0 L205.9 535.5 L200.4 533.9 L194.9 532.2 L189.5 530.2 L184.0 528.1 L178.7 525.9 L173.3 523.4 L168.1 520.8 L163.0 517.9 L158.0 514.8 L153.1 511.6 L148.3 508.1 L143.8 504.3 L139.4 500.4" stroke-width="1.29" stroke-linecap="round" opacity="0.67"/><path d="M442.1 165.9 L438.8 163.3 L435.5 160.7 L432.3 157.9 L429.1 155.1 L425.8 152.2 L422.6 149.3 L419.3 146.4 L415.9 143.4 L412.5 140.4 L409.1 137.5 L405.5 134.5 L401.9 131.7 L398.2 128.9 L394.4 126.1 L390.5 123.5 L386.5 121.0 L382.4 118.6 L378.2 116.4 L374.0 114.3 L369.6 112.4 L365.2 110.8 L360.7 109.3 L356.1 108.2 L351.5 107.2 L346.8 106.6 L342.2 106.2 L337.5 106.2 L332.8 106.4 L328.1 106.6 L323.4 107.0 L318.7 107.5 L314.1 108.1 L309.5 108.8 L304.9 109.6 L300.3 110.5 L295.8 111.5 L291.3 112.5 L286.8 113.7 L282.3 115.0 L277.9 116.3 L273.5 117.8 L269.2 119.3 L264.8 120.9 L260.6 122.6 L256.3 124.4 L252.1 126.2 L248.0 128.1 L243.9 130.1 L239.8 132.2 L235.8 134.3 L231.8 136.5 L227.8 138.8 L223.9 141.1 L220.1 143.5 L216.3 146.0 L212.5 148.5 L208.8 151.1 L205.1 153.7 L201.5 156.4 L197.9 159.2 L194.3 162.0 L190.9 164.9 L187.4 167.9 L184.0 170.8 L180.7 173.9 L177.4 177.0 L174.1 180.2 L170.9 183.4 L167.8 186.7 L164.7 190.0 L161.7 193.4 L158.7 196.8 L155.8 200.3 L152.9 203.9 L150.1 207.5 L147.4 211.2 L144.7 214.9 L142.1 218.6 L139.6 222.5 L137.1 226.3 L134.7 230.3 L132.4 234.2 L130.2 238.3 L128.0 242.4 L125.9 246.5 L123.9 250.7 L122.0 254.9 L120.1 259.2 L118.4 263.5 L116.8 267.9 L115.2 272.3 L113.7 276.7 L112.4 281.2 L111.1 285.7 L110.0 290.2 L108.9 294.8 L108.0 299.4 L107.1 304.1 L106.4 308.7 L105.8 313.4 L105.3 318.1 L104.9 322.8 L104.6 327.5 L104.4 332.2 L104.4 337.0 L104.5 341.7 L104.7 346.4 L105.0 351.2 L105.4 355.9 L106.0 360.6 L106.6 365.3 L107.4 370.0 L108.3 374.6 L109.4 379.2 L110.9 383.7 L112.6 388.2 L114.5 392.5 L116.8 396.7 L119.2 400.9 L121.9 404.9 L124.7 408.7 L127.7 412.5 L130.9 416.1 L134.2 419.6 L137.6 423.0 L141.1 426.2 L144.6 429.3 L148.3 432.4 L151.9 435.3 L155.6 438.1 L159.2 440.9 L162.9 443.6 L166.5 446.2 L170.0 448.8 L173.6 451.3 L177.0 453.9 L180.4 456.4 L183.7 459.0 L186.9 461.6 L190.0 464.3" stroke-width="0.93" stroke-linecap="round" opacity="0.54"/><path d="M449.3 133.0 L445.3 129.9 L441.3 126.7 L437.4 123.2 L433.5 119.7 L429.6 116.0 L425.6 112.2 L421.6 108.4 L417.5 104.6 L413.3 100.8 L408.9 97.0 L404.5 93.3 L399.9 89.8 L395.2 86.4 L390.3 83.1 L385.3 80.1 L380.2 77.4 L374.9 74.9 L369.5 72.8 L364.0 71.0 L358.5 69.6 L352.8 68.6 L347.1 68.0 L341.4 67.8 L335.7 68.0 L330.0 68.5 L324.3 69.1 L318.7 70.0 L313.1 71.0 L307.5 72.3 L302.0 73.7 L296.5 75.2 L291.1 76.8 L285.8 78.6 L280.5 80.5 L275.2 82.4 L270.0 84.4 L264.9 86.5 L259.8 88.5 L254.7 90.7 L249.6 92.8 L244.6 94.9 L239.6 97.1 L234.6 99.2 L229.6 101.4 L224.6 103.5 L219.6 105.7 L214.6 107.9 L209.6 110.1 L204.6 112.3 L199.6 114.6 L194.5 116.9 L189.5 119.3 L184.5 121.7 L179.5 124.3 L174.5 126.9 L169.6 129.7 L164.7 132.5 L159.9 135.5 L155.1 138.7 L150.5 142.0 L145.9 145.4 L141.5 149.0 L137.2 152.8 L133.0 156.7 L129.0 160.8 L125.2 165.1 L121.5 169.5 L118.1 174.1 L114.8 178.8 L111.7 183.6 L108.8 188.6 L106.2 193.6 L103.7 198.8 L101.4 204.0 L99.3 209.4 L97.4 214.7 L95.7 220.2 L94.1 225.6 L92.7 231.1 L91.4 236.6 L90.3 242.2 L89.2 247.7 L88.3 253.2 L87.4 258.7 L86.6 264.2 L85.8 269.6 L85.1 275.1 L84.4 280.5 L83.8 286.0 L83.1 291.4 L82.5 296.8 L81.9 302.2 L81.2 307.6 L80.6 313.0 L80.0 318.4 L79.4 323.8 L78.8 329.3 L78.3 334.8 L77.7 340.3 L77.3 345.8 L76.9 351.4 L76.6 357.0 L76.4 362.6 L76.3 368.3 L76.3 373.9 L76.5 379.6 L76.8 385.3 L77.4 391.0 L78.0 396.6 L78.9 402.3 L80.0 407.9 L81.3 413.5 L82.9 419.0 L84.6 424.5 L86.6 429.8 L88.8 435.1 L91.2 440.3 L94.1 445.3 L97.4 450.0 L101.2 454.4 L105.3 458.6 L109.7 462.5 L114.5 466.2 L119.4 469.6 L124.5 472.7 L129.8 475.6 L135.2 478.3 L140.6 480.7 L146.1 483.1 L151.5 485.2 L156.9 487.3 L162.2 489.3 L167.4 491.2 L172.5 493.1 L177.4 495.1 L182.1 497.2 L186.7 499.3 L191.0 501.6 L195.2 504.1 L199.1 506.9" stroke-width="0.88" stroke-linecap="round" opacity="0.94"/><path d="M496.2 168.5 L500.3 172.1 L504.6 175.6 L508.9 179.0 L513.4 182.4 L518.0 185.9 L522.6 189.3 L527.2 192.9 L531.9 196.5 L536.5 200.3 L541.1 204.2 L545.6 208.2 L550.0 212.4 L554.3 216.8 L558.4 221.3 L562.3 226.1 L565.9 231.0 L569.2 236.1 L572.2 241.4 L574.8 246.9 L577.1 252.5 L578.9 258.2 L580.5 264.1 L581.9 270.0 L583.1 275.9 L584.2 281.8 L585.2 287.8 L586.0 293.8 L586.6 299.8 L587.0 305.8 L587.3 311.8 L587.4 317.8 L587.4 323.8 L587.2 329.9 L586.8 335.8 L586.3 341.8 L585.6 347.8 L584.8 353.7 L583.8 359.6 L582.7 365.5 L581.5 371.3 L580.1 377.1 L578.5 382.8 L576.9 388.5 L575.1 394.2 L573.1 399.8 L571.1 405.3 L568.9 410.8 L566.6 416.3 L564.2 421.6 L561.7 426.9 L559.0 432.2 L556.3 437.4 L553.5 442.5 L550.5 447.5 L547.5 452.5 L544.4 457.4 L541.1 462.3 L537.8 467.1 L534.4 471.8 L530.9 476.4 L527.3 481.0 L523.7 485.5 L519.9 489.9 L516.1 494.3 L512.2 498.5 L508.2 502.7 L504.1 506.9 L500.0 510.9 L495.8 514.9 L491.5 518.8 L487.1 522.6 L482.7 526.3 L478.1 530.0 L473.5 533.5 L468.9 537.0 L464.1 540.4 L459.3 543.7 L454.4 546.9 L449.5 550.0 L444.5 553.0 L439.4 555.9 L434.2 558.7 L429.0 561.4 L423.7 564.0 L418.3 566.5 L412.9 568.8 L407.4 571.0 L401.9 573.1 L396.3 575.1 L390.6 577.0 L384.9 578.7 L379.2 580.2 L373.4 581.7 L367.5 583.0 L361.7 584.1 L355.8 585.1 L349.8 586.0 L343.9 586.7 L337.9 587.2 L331.9 587.6 L325.9 587.8 L319.8 587.9 L313.8 587.7 L307.8 587.5 L301.8 587.0 L295.7 586.4 L289.8 585.7 L283.8 584.8 L277.8 583.7 L271.9 582.4 L266.0 581.0 L260.2 579.4 L254.4 577.7 L248.7 575.7 L243.0 573.7 L237.4 571.5 L231.8 569.1 L226.4 566.6 L220.9 563.9 L215.6 561.0 L210.6 557.7 L205.8 554.0 L201.3 549.9 L197.0 545.4 L193.0 540.7 L189.3 535.8 L185.8 530.7 L182.6 525.4 L179.5 520.0 L176.7 514.6 L174.0 509.2 L171.5 503.7 L169.0 498.3 L166.6 493.0 L164.3 487.8 L162.0 482.7 L159.6 477.7 L157.2 472.9 L154.6 468.3 L151.8 463.8" stroke-width="1.02" stroke-linecap="round" opacity="0.49"/><path d="M477.5 181.4 L474.2 177.9 L471.1 174.3 L468.2 170.4 L465.3 166.4 L462.4 162.3 L459.6 158.0 L456.7 153.7 L453.8 149.2 L450.9 144.7 L447.8 140.2 L444.6 135.8 L441.2 131.4 L437.7 127.0 L434.0 122.9 L430.1 118.9 L426.0 115.1 L421.7 111.6 L417.2 108.4 L412.5 105.6 L407.6 103.1 L402.6 101.1 L397.4 99.3 L392.3 97.6 L387.1 96.1 L381.8 94.7 L376.5 93.5 L371.1 92.5 L365.8 91.6 L360.4 91.0 L354.9 90.4 L349.5 90.1 L344.1 89.9 L338.6 89.9 L333.2 90.0 L327.8 90.3 L322.4 90.8 L317.0 91.4 L311.6 92.1 L306.3 93.0 L301.0 94.0 L295.8 95.1 L290.5 96.4 L285.4 97.8 L280.2 99.2 L275.1 100.8 L270.0 102.5 L265.0 104.2 L260.0 106.0 L255.1 108.0 L250.2 109.9 L245.3 112.0 L240.4 114.1 L235.6 116.3 L230.9 118.6 L226.1 120.9 L221.4 123.3 L216.8 125.7 L212.1 128.2 L207.5 130.8 L202.9 133.5 L198.4 136.2 L193.9 139.0 L189.4 141.8 L185.0 144.8 L180.6 147.8 L176.3 151.0 L172.0 154.2 L167.8 157.5 L163.6 160.9 L159.5 164.4 L155.5 168.0 L151.6 171.7 L147.8 175.5 L144.0 179.4 L140.4 183.5 L136.9 187.6 L133.5 191.8 L130.2 196.2 L127.1 200.6 L124.1 205.1 L121.2 209.8 L118.5 214.5 L115.9 219.3 L113.5 224.1 L111.2 229.1 L109.1 234.1 L107.2 239.2 L105.4 244.3 L103.7 249.5 L102.2 254.7 L100.9 260.0 L99.7 265.3 L98.7 270.6 L97.8 275.9 L97.0 281.2 L96.4 286.6 L95.9 292.0 L95.5 297.3 L95.2 302.7 L95.1 308.0 L95.0 313.4 L95.1 318.7 L95.2 324.0 L95.5 329.3 L95.8 334.6 L96.2 339.9 L96.7 345.1 L97.2 350.4 L97.9 355.6 L98.6 360.9 L99.3 366.1 L100.2 371.3 L101.1 376.5 L102.0 381.7 L103.1 386.8 L104.2 392.0 L105.4 397.2 L106.7 402.3 L108.1 407.5 L109.6 412.6 L111.5 417.5 L113.6 422.4 L116.1 427.1 L118.9 431.7 L121.9 436.1 L125.1 440.3 L128.5 444.5 L132.0 448.4 L135.7 452.3 L139.5 456.0 L143.4 459.5 L147.4 463.0 L151.4 466.4 L155.4 469.7 L159.3 472.9 L163.3 476.2 L167.2 479.4 L171.1 482.6 L174.9 485.8 L178.6 489.2" stroke-width="1.22" stroke-linecap="round" opacity="0.84"/><path d="M442.7 150.9 L439.1 148.2 L435.6 145.3 L432.1 142.4 L428.7 139.4 L425.2 136.3 L421.6 133.2 L418.0 130.0 L414.4 126.9 L410.7 123.7 L406.9 120.6 L403.0 117.6 L399.0 114.6 L394.9 111.7 L390.7 108.9 L386.4 106.3 L382.0 103.9 L377.5 101.6 L372.9 99.5 L368.2 97.7 L363.5 96.1 L358.6 94.8 L353.7 93.8 L348.8 93.0 L343.8 92.6 L338.9 92.6 L333.9 92.9 L328.9 93.5 L324.0 94.2 L319.0 95.0 L314.2 95.8 L309.3 96.8 L304.5 97.8 L299.7 98.9 L294.9 100.1 L290.2 101.4 L285.5 102.7 L280.8 104.0 L276.2 105.4 L271.5 106.9 L266.9 108.4 L262.4 110.0 L257.8 111.6 L253.3 113.2 L248.8 114.9 L244.3 116.7 L239.8 118.5 L235.4 120.3 L230.9 122.2 L226.5 124.1 L222.1 126.1 L217.7 128.2 L213.3 130.3 L208.9 132.4 L204.6 134.6 L200.2 136.9 L195.9 139.3 L191.7 141.7 L187.4 144.2 L183.2 146.8 L179.0 149.5 L174.8 152.2 L170.7 155.0 L166.7 158.0 L162.6 161.0 L158.7 164.1 L154.8 167.3 L151.0 170.6 L147.2 174.0 L143.6 177.5 L140.0 181.1 L136.5 184.9 L133.1 188.7 L129.8 192.6 L126.7 196.6 L123.6 200.7 L120.7 204.9 L117.8 209.2 L115.2 213.5 L112.6 218.0 L110.2 222.5 L107.9 227.1 L105.8 231.8 L103.8 236.5 L102.0 241.3 L100.3 246.1 L98.8 251.0 L97.4 256.0 L96.2 261.0 L95.1 266.0 L94.2 271.0 L93.4 276.0 L92.7 281.1 L92.3 286.2 L91.9 291.2 L91.7 296.3 L91.6 301.4 L91.6 306.5 L91.8 311.5 L92.1 316.5 L92.5 321.6 L93.0 326.5 L93.6 331.5 L94.3 336.5 L95.0 341.4 L95.9 346.2 L96.9 351.1 L97.9 355.9 L99.0 360.7 L100.2 365.5 L101.5 370.2 L102.8 374.9 L104.1 379.6 L105.6 384.2 L107.0 388.8 L108.7 393.4 L110.7 397.8 L112.9 402.2 L115.4 406.4 L118.1 410.5 L120.9 414.4 L124.0 418.3 L127.1 422.0 L130.4 425.6 L133.8 429.1 L137.2 432.5 L140.7 435.8 L144.2 439.0 L147.8 442.1 L151.3 445.2 L154.8 448.2 L158.3 451.1 L161.8 454.1 L165.1 457.0 L168.4 459.9 L171.7 462.9 L174.8 465.9 L177.9 469.0 L180.8 472.1 L183.7 475.4 L186.4 478.8" stroke-width="1.32" stroke-linecap="round" opacity="0.72"/><path d="M428.3 141.1 L432.9 144.3 L437.6 147.3 L442.3 150.1 L447.2 152.8 L452.1 155.5 L457.1 158.0 L462.2 160.6 L467.4 163.1 L472.7 165.6 L478.0 168.2 L483.4 170.9 L488.8 173.6 L494.3 176.5 L499.8 179.5 L505.2 182.6 L510.6 186.0 L515.9 189.5 L521.2 193.3 L526.2 197.2 L531.1 201.4 L535.8 205.9 L540.3 210.6 L544.4 215.5 L548.2 220.7 L551.7 226.1 L555.0 231.6 L558.2 237.2 L561.3 243.0 L564.2 248.8 L567.0 254.7 L569.6 260.7 L572.0 266.8 L574.3 273.0 L576.3 279.2 L578.2 285.6 L579.8 292.0 L581.2 298.4 L582.4 305.0 L583.3 311.5 L584.0 318.1 L584.4 324.8 L584.6 331.4 L584.5 338.1 L584.2 344.7 L583.6 351.3 L582.7 357.9 L581.7 364.5 L580.3 371.0 L578.8 377.4 L577.0 383.8 L575.0 390.1 L572.7 396.3 L570.3 402.4 L567.7 408.5 L564.9 414.4 L561.9 420.2 L558.8 426.0 L555.5 431.6 L552.0 437.1 L548.5 442.5 L544.8 447.8 L541.0 453.0 L537.2 458.1 L533.2 463.1 L529.1 468.0 L525.0 472.8 L520.8 477.6 L516.6 482.2 L512.3 486.8 L507.9 491.3 L503.5 495.7 L499.0 500.1 L494.4 504.4 L489.9 508.7 L485.2 512.9 L480.5 517.0 L475.7 521.1 L470.9 525.1 L466.0 529.0 L461.0 532.9 L455.9 536.7 L450.8 540.5 L445.5 544.1 L440.2 547.7 L434.8 551.1 L429.3 554.5 L423.7 557.7 L418.0 560.8 L412.2 563.7 L406.3 566.5 L400.3 569.2 L394.3 571.6 L388.1 573.9 L381.8 576.0 L375.5 577.9 L369.1 579.5 L362.7 581.0 L356.1 582.2 L349.6 583.1 L343.0 583.9 L336.3 584.3 L329.7 584.6 L323.1 584.5 L316.4 584.2 L309.8 583.7 L303.2 582.9 L296.6 581.9 L290.1 580.6 L283.7 579.1 L277.3 577.3 L271.0 575.3 L264.7 573.1 L258.6 570.7 L252.6 568.1 L246.6 565.4 L240.8 562.4 L235.1 559.1 L229.6 555.6 L224.2 551.8 L219.1 547.8 L214.1 543.5 L209.3 539.1 L204.7 534.6 L200.3 529.9 L196.0 525.2 L191.9 520.4 L187.9 515.5 L184.0 510.6 L180.3 505.6 L176.6 500.7 L173.0 495.7 L169.5 490.8 L166.1 485.9 L162.6 481.1 L159.2 476.2 L155.8 471.4 L152.4 466.7 L148.9 462.0 L145.4 457.3 L141.8 452.6" stroke-width="1.40" stroke-linecap="round" opacity="0.68"/><path d="M528.7 171.3 L532.0 175.2 L535.1 179.4 L537.9 183.7 L540.5 188.2 L542.8 192.8 L544.8 197.6 L546.6 202.5 L548.2 207.4 L549.6 212.5 L550.8 217.5 L551.7 222.6 L552.5 227.8 L553.2 232.9 L553.7 238.1 L554.0 243.2 L554.3 248.3 L554.4 253.4 L554.5 258.4 L554.5 263.4 L554.5 268.3 L554.4 273.2 L554.4 278.0 L554.4 282.8 L554.5 287.5 L554.6 292.2 L554.9 296.8 L555.3 301.4 L555.7 306.0 L555.9 310.6 L556.0 315.2 L555.9 319.8 L555.7 324.4 L555.3 329.0 L554.8 333.5 L554.1 338.1 L553.3 342.6 L552.4 347.1 L551.4 351.5 L550.3 355.9 L549.0 360.3 L547.7 364.6 L546.3 368.9 L544.8 373.2 L543.3 377.4 L541.7 381.5 L540.0 385.7 L538.3 389.8 L536.5 393.8 L534.7 397.8 L532.9 401.8 L531.0 405.8 L529.2 409.8 L527.3 413.7 L525.3 417.6 L523.4 421.5 L521.5 425.4 L519.5 429.2 L517.5 433.1 L515.5 436.9 L513.5 440.8 L511.4 444.6 L509.4 448.5 L507.2 452.3 L505.1 456.1 L502.9 460.0 L500.6 463.8 L498.3 467.6 L496.0 471.4 L493.5 475.1 L491.1 478.9 L488.5 482.6 L485.8 486.2 L483.1 489.8 L480.3 493.4 L477.4 496.9 L474.3 500.3 L471.2 503.7 L468.0 507.0 L464.7 510.1 L461.3 513.2 L457.8 516.2 L454.2 519.1 L450.5 521.8 L446.8 524.5 L442.9 527.0 L438.9 529.3 L434.9 531.5 L430.8 533.6 L426.6 535.5 L422.3 537.3 L418.0 538.9 L413.7 540.4 L409.3 541.8 L404.8 543.0 L400.3 544.0 L395.8 544.9 L391.3 545.7 L386.8 546.3 L382.2 546.8 L377.7 547.2 L373.1 547.5 L368.6 547.7 L364.1 547.8 L359.6 547.7 L355.1 547.6 L350.6 547.5 L346.1 547.2 L341.7 546.9 L337.3 546.5 L332.9 546.1 L328.5 545.6 L324.1 545.1 L319.8 544.6 L315.5 543.9 L311.2 542.8 L307.0 541.5 L302.8 540.0 L298.7 538.2 L294.7 536.2 L290.8 534.0 L287.0 531.7 L283.3 529.2 L279.7 526.6 L276.1 524.0 L272.7 521.3 L269.3 518.5 L266.0 515.8 L262.8 513.0 L259.6 510.2 L256.5 507.5 L253.4 504.8 L250.4 502.2 L247.4 499.6 L244.3 497.2 L241.3 494.8 L238.2 492.5 L235.1 490.4 L231.9 488.4 L228.6 486.5 L225.2 484.7" stroke-width="0.71" stroke-linecap="round" opacity="0.81"/><path d="M516.7 156.9 L512.3 153.5 L507.6 150.4 L502.8 147.6 L497.8 145.0 L492.7 142.7 L487.5 140.6 L482.2 138.7 L476.9 137.0 L471.6 135.4 L466.3 133.9 L461.0 132.6 L455.8 131.3 L450.6 130.1 L445.4 128.9 L440.4 127.8 L435.4 126.6 L430.4 125.5 L425.6 124.3 L420.8 123.0 L416.0 121.7 L411.4 120.3 L406.8 118.8 L402.2 117.2 L397.7 115.5 L393.2 113.5 L388.7 111.6 L384.1 109.8 L379.4 108.3 L374.7 106.9 L369.9 105.7 L365.1 104.8 L360.2 104.0 L355.4 103.5 L350.4 103.2 L345.5 103.2 L340.6 103.3 L335.7 103.7 L330.8 104.2 L326.0 104.9 L321.2 105.8 L316.4 106.9 L311.6 108.1 L307.0 109.4 L302.3 110.9 L297.7 112.4 L293.2 114.0 L288.7 115.7 L284.3 117.4 L279.9 119.2 L275.5 121.0 L271.2 122.8 L266.9 124.6 L262.6 126.3 L258.3 128.1 L254.0 129.9 L249.7 131.6 L245.5 133.3 L241.2 135.0 L236.9 136.8 L232.5 138.5 L228.2 140.2 L223.8 141.9 L219.5 143.6 L215.1 145.4 L210.7 147.3 L206.3 149.2 L201.9 151.2 L197.6 153.3 L193.2 155.5 L188.9 157.8 L184.7 160.2 L180.5 162.7 L176.4 165.5 L172.4 168.3 L168.5 171.3 L164.8 174.5 L161.1 177.8 L157.7 181.2 L154.3 184.9 L151.2 188.6 L148.2 192.5 L145.4 196.6 L142.7 200.7 L140.3 205.0 L138.0 209.3 L136.0 213.8 L134.1 218.3 L132.3 222.9 L130.8 227.6 L129.4 232.3 L128.1 237.0 L127.0 241.7 L125.9 246.4 L125.0 251.2 L124.2 255.9 L123.4 260.6 L122.7 265.3 L122.1 270.0 L121.5 274.7 L120.8 279.3 L120.2 283.9 L119.7 288.5 L119.0 293.1 L118.4 297.7 L117.8 302.3 L117.1 306.8 L116.5 311.4 L115.8 316.0 L115.1 320.6 L114.4 325.2 L113.7 329.9 L113.1 334.6 L112.4 339.3 L111.9 344.0 L111.4 348.8 L111.1 353.6 L111.3 358.3 L111.9 363.0 L112.8 367.7 L114.2 372.3 L115.8 376.8 L117.8 381.2 L120.2 385.4 L122.8 389.5 L125.6 393.5 L128.7 397.3 L132.0 401.0 L135.5 404.5 L139.2 407.9 L142.9 411.1 L146.8 414.2 L150.7 417.1 L154.6 419.9 L158.5 422.6 L162.4 425.3 L166.2 427.8 L169.9 430.4 L173.4 432.9 L176.8 435.5 L180.0 438.2" stroke-width="1.26" stroke-linecap="round" opacity="0.75"/><path d="M490.6 178.4 L494.5 181.8 L498.5 185.2 L502.5 188.7 L506.5 192.3 L510.5 195.8 L514.5 199.5 L518.4 203.2 L522.3 207.1 L526.2 211.0 L530.0 215.0 L533.7 219.2 L537.2 223.5 L540.7 227.9 L544.0 232.4 L547.2 237.1 L550.1 241.9 L552.9 246.8 L555.5 251.8 L557.9 256.9 L560.1 262.2 L562.0 267.5 L563.6 272.9 L565.1 278.4 L566.2 283.9 L567.1 289.5 L567.7 295.1 L568.0 300.8 L568.1 306.4 L568.1 312.1 L567.9 317.7 L567.6 323.3 L567.2 328.9 L566.6 334.4 L566.0 340.0 L565.2 345.5 L564.3 351.0 L563.4 356.4 L562.4 361.9 L561.3 367.3 L560.1 372.6 L558.8 378.0 L557.5 383.3 L556.1 388.7 L554.7 393.9 L553.2 399.2 L551.6 404.5 L550.0 409.7 L548.2 415.0 L546.4 420.2 L544.6 425.4 L542.6 430.6 L540.6 435.7 L538.4 440.9 L536.2 446.0 L533.9 451.0 L531.4 456.1 L528.8 461.1 L526.1 466.0 L523.3 470.9 L520.3 475.7 L517.2 480.4 L514.0 485.1 L510.6 489.6 L507.1 494.1 L503.4 498.4 L499.6 502.7 L495.7 506.8 L491.6 510.7 L487.4 514.6 L483.0 518.3 L478.5 521.8 L474.0 525.2 L469.3 528.4 L464.4 531.5 L459.5 534.3 L454.5 537.1 L449.5 539.6 L444.3 542.0 L439.1 544.3 L433.9 546.4 L428.5 548.3 L423.2 550.1 L417.8 551.7 L412.4 553.2 L406.9 554.6 L401.5 555.9 L396.0 557.0 L390.5 558.0 L385.1 558.9 L379.6 559.8 L374.1 560.5 L368.6 561.2 L363.1 561.7 L357.7 562.2 L352.2 562.7 L346.7 563.0 L341.2 563.3 L335.7 563.6 L330.2 563.7 L324.7 563.8 L319.2 563.8 L313.7 563.8 L308.2 563.6 L302.7 563.4 L297.1 563.1 L291.6 562.7 L286.1 562.2 L280.5 561.6 L275.0 560.9 L269.4 560.0 L263.9 559.1 L258.4 557.9 L252.9 556.7 L247.4 555.2 L242.1 553.4 L236.8 551.3 L231.7 548.9 L226.8 546.1 L222.0 543.2 L217.4 539.9 L212.9 536.4 L208.6 532.7 L204.5 528.8 L200.6 524.7 L196.9 520.5 L193.3 516.1 L189.9 511.6 L186.7 507.0 L183.7 502.3 L180.8 497.6 L178.0 492.8 L175.3 488.1 L172.8 483.3 L170.3 478.5 L168.0 473.8 L165.6 469.1 L163.3 464.5 L161.0 459.9 L158.6 455.4 L156.2 451.0" stroke-width="1.09" stroke-linecap="round" opacity="0.67"/><path d="M502.0 186.7 L498.7 182.8 L495.6 178.8 L492.5 174.7 L489.5 170.5 L486.5 166.2 L483.6 161.8 L480.6 157.3 L477.6 152.8 L474.6 148.2 L471.4 143.6 L468.2 139.1 L464.8 134.5 L461.3 130.1 L457.7 125.7 L453.9 121.4 L449.9 117.2 L445.7 113.3 L441.4 109.5 L436.9 106.0 L432.1 102.7 L427.3 99.8 L422.2 97.2 L417.0 94.8 L411.7 92.6 L406.4 90.5 L401.1 88.5 L395.7 86.6 L390.2 84.8 L384.7 83.2 L379.2 81.7 L373.6 80.3 L368.0 79.0 L362.3 77.9 L356.6 76.9 L350.9 76.0 L345.1 75.3 L339.4 74.7 L333.6 74.2 L327.8 73.9 L322.0 73.7 L316.1 73.7 L310.3 73.9 L304.5 74.2 L298.7 74.6 L292.8 75.2 L287.1 76.0 L281.3 76.9 L275.5 77.9 L269.8 79.1 L264.1 80.5 L258.4 82.0 L252.8 83.6 L247.3 85.5 L241.7 87.4 L236.3 89.5 L230.9 91.8 L225.5 94.2 L220.3 96.7 L215.1 99.4 L209.9 102.2 L204.9 105.1 L199.9 108.2 L195.0 111.4 L190.2 114.7 L185.5 118.2 L180.9 121.7 L176.4 125.4 L172.0 129.2 L167.7 133.0 L163.5 137.0 L159.4 141.1 L155.3 145.3 L151.4 149.5 L147.6 153.9 L144.0 158.3 L140.4 162.8 L136.9 167.3 L133.5 172.0 L130.3 176.7 L127.1 181.5 L124.1 186.3 L121.1 191.2 L118.3 196.1 L115.6 201.1 L113.0 206.2 L110.5 211.3 L108.1 216.4 L105.8 221.6 L103.6 226.8 L101.5 232.0 L99.5 237.3 L97.6 242.6 L95.8 247.9 L94.1 253.3 L92.5 258.7 L91.1 264.1 L89.7 269.6 L88.4 275.1 L87.2 280.6 L86.1 286.1 L85.2 291.6 L84.3 297.2 L83.5 302.7 L82.9 308.3 L82.3 313.9 L81.8 319.5 L81.5 325.2 L81.2 330.8 L81.1 336.5 L81.1 342.1 L81.2 347.8 L81.4 353.4 L81.7 359.1 L82.1 364.8 L82.6 370.4 L83.3 376.1 L84.1 381.8 L85.0 387.4 L85.9 393.1 L86.7 398.8 L87.6 404.5 L88.4 410.3 L89.2 416.2 L90.1 422.0 L91.0 428.0 L92.0 433.9 L93.1 439.9 L94.3 445.9 L95.7 451.9 L97.3 457.9 L99.0 463.8 L100.9 469.7 L103.1 475.6 L105.4 481.4 L108.0 487.1 L110.9 492.7 L114.0 498.1 L117.3 503.3 L121.0 508.4 L124.9 513.2" stroke-width="0.72" stroke-linecap="round" opacity="0.54"/><path d="M509.1 159.2 L512.4 163.4 L515.4 167.9 L518.1 172.5 L520.5 177.3 L522.6 182.3 L524.5 187.4 L526.1 192.6 L527.6 197.8 L528.8 203.0 L529.9 208.3 L530.8 213.6 L531.6 218.8 L532.3 224.0 L532.9 229.2 L533.5 234.3 L534.1 239.3 L534.7 244.3 L535.3 249.2 L535.9 254.0 L536.7 258.7 L537.5 263.3 L538.6 267.9 L539.7 272.4 L541.1 276.9 L542.7 281.3 L544.3 285.8 L545.7 290.3 L547.1 294.8 L548.3 299.4 L549.5 304.1 L550.5 308.7 L551.4 313.4 L552.2 318.2 L552.8 322.9 L553.3 327.7 L553.7 332.5 L553.9 337.3 L554.0 342.1 L554.0 347.0 L553.7 351.8 L553.4 356.6 L552.9 361.4 L552.2 366.2 L551.4 371.0 L550.4 375.7 L549.3 380.4 L548.1 385.1 L546.7 389.7 L545.1 394.2 L543.4 398.8 L541.6 403.2 L539.7 407.6 L537.6 412.0 L535.4 416.2 L533.1 420.4 L530.6 424.6 L528.1 428.6 L525.5 432.6 L522.8 436.5 L519.9 440.4 L517.1 444.1 L514.1 447.8 L511.0 451.4 L507.9 454.9 L504.7 458.4 L501.5 461.8 L498.2 465.1 L494.9 468.4 L491.5 471.5 L488.1 474.7 L484.7 477.7 L481.2 480.7 L477.7 483.7 L474.1 486.6 L470.5 489.4 L466.9 492.2 L463.3 495.0 L459.7 497.7 L456.0 500.4 L452.3 503.0 L448.5 505.6 L444.8 508.2 L441.0 510.7 L437.1 513.1 L433.3 515.6 L429.4 518.0 L425.4 520.3 L421.5 522.6 L417.5 524.9 L413.4 527.1 L409.3 529.2 L405.2 531.3 L401.0 533.3 L396.8 535.3 L392.5 537.2 L388.2 539.0 L383.9 540.8 L379.5 542.4 L375.0 544.0 L370.5 545.5 L366.0 546.9 L361.4 548.1 L356.8 549.3 L352.1 550.3 L347.4 551.3 L342.7 552.1 L337.9 552.7 L333.2 553.3 L328.4 553.7 L323.5 553.9 L318.7 554.0 L313.9 554.0 L309.1 553.8 L304.3 553.5 L299.5 553.0 L294.7 552.3 L290.0 551.2 L285.3 549.7 L280.8 547.9 L276.4 545.7 L272.1 543.3 L268.0 540.5 L264.0 537.5 L260.2 534.3 L256.5 530.9 L253.0 527.3 L249.6 523.6 L246.3 519.8 L243.2 516.0 L240.2 512.0 L237.4 508.1 L234.6 504.2 L231.9 500.4 L229.3 496.6 L226.7 492.9 L224.1 489.2 L221.5 485.8 L218.9 482.4 L216.2 479.3 L213.5 476.3" stroke-width="1.06" stroke-linecap="round" opacity="0.49"/><path d="M573.5 168.4 L576.7 173.9 L579.6 179.5 L582.1 185.3 L584.2 191.3 L586.0 197.5 L587.5 203.7 L588.7 210.0 L589.5 216.4 L590.1 222.8 L590.5 229.2 L590.6 235.6 L590.4 242.0 L590.1 248.3 L589.7 254.6 L589.1 260.8 L588.4 266.9 L587.6 273.0 L586.7 279.0 L585.8 284.9 L585.0 290.7 L584.1 296.5 L583.3 302.2 L582.6 307.8 L582.0 313.3 L581.6 318.8 L581.3 324.3 L581.0 329.7 L580.6 335.1 L580.2 340.6 L579.7 346.0 L579.1 351.3 L578.4 356.7 L577.7 362.1 L576.9 367.4 L576.0 372.8 L575.1 378.1 L574.1 383.4 L573.0 388.7 L571.9 394.0 L570.6 399.3 L569.3 404.6 L568.0 409.8 L566.5 415.1 L565.0 420.3 L563.4 425.6 L561.7 430.8 L559.9 436.0 L558.0 441.2 L556.0 446.3 L553.9 451.4 L551.7 456.5 L549.4 461.6 L547.0 466.6 L544.4 471.6 L541.8 476.5 L539.0 481.4 L536.1 486.2 L533.0 490.9 L529.9 495.6 L526.6 500.2 L523.2 504.7 L519.7 509.1 L516.0 513.5 L512.2 517.7 L508.3 521.8 L504.3 525.8 L500.1 529.7 L495.9 533.4 L491.5 537.1 L487.0 540.6 L482.4 543.9 L477.7 547.1 L472.9 550.2 L468.1 553.2 L463.1 555.9 L458.1 558.6 L453.0 561.1 L447.8 563.4 L442.6 565.6 L437.3 567.6 L431.9 569.5 L426.6 571.2 L421.1 572.8 L415.7 574.2 L410.2 575.5 L404.7 576.7 L399.2 577.7 L393.7 578.6 L388.2 579.4 L382.6 580.1 L377.1 580.6 L371.6 581.0 L366.1 581.3 L360.6 581.6 L355.1 581.7 L349.6 581.7 L344.1 581.6 L338.6 581.4 L333.2 581.2 L327.7 580.8 L322.3 580.4 L316.9 580.0 L311.5 579.4 L306.1 578.8 L300.8 578.1 L295.4 577.3 L290.1 576.5 L284.7 575.6 L279.4 574.6 L274.1 573.6 L268.8 572.5 L263.5 571.3 L258.2 570.0 L252.9 568.7 L247.7 567.3 L242.4 566.0 L237.0 564.7 L231.6 563.4 L226.2 562.0 L220.8 560.6 L215.3 559.2 L209.8 557.7 L204.3 556.2 L198.8 554.6 L193.2 552.8 L187.7 550.9 L182.2 549.0 L176.7 546.8 L171.2 544.5 L165.8 542.1 L160.4 539.5 L155.2 536.7 L150.0 533.7 L144.9 530.5 L140.0 527.1 L135.2 523.5 L130.5 519.8 L126.0 515.8 L121.8 511.6 L117.7 507.2" stroke-width="1.02" stroke-linecap="round" opacity="0.69"/><path d="M531.6 154.4 L526.8 149.7 L521.8 145.3 L516.6 141.1 L511.2 137.2 L505.7 133.5 L500.1 130.0 L494.3 126.7 L488.5 123.6 L482.6 120.7 L476.6 118.0 L470.7 115.4 L464.7 112.9 L458.7 110.6 L452.7 108.3 L446.7 106.1 L440.7 104.0 L434.8 101.9 L428.9 99.8 L423.0 97.8 L417.1 95.7 L411.3 93.5 L405.4 91.3 L399.6 89.2 L393.6 87.1 L387.7 85.2 L381.6 83.5 L375.6 81.9 L369.4 80.4 L363.3 79.1 L357.0 78.0 L350.8 77.0 L344.5 76.2 L338.2 75.5 L331.8 75.1 L325.5 74.8 L319.1 74.8 L312.7 74.9 L306.4 75.2 L300.0 75.7 L293.7 76.4 L287.4 77.3 L281.1 78.4 L274.8 79.7 L268.6 81.2 L262.5 82.9 L256.4 84.8 L250.3 86.9 L244.4 89.1 L238.5 91.5 L232.7 94.1 L226.9 96.9 L221.3 99.8 L215.8 102.9 L210.3 106.2 L205.0 109.5 L199.7 113.1 L194.6 116.7 L189.5 120.5 L184.6 124.4 L179.8 128.4 L175.0 132.5 L170.4 136.7 L165.9 141.1 L161.5 145.5 L157.2 150.0 L153.0 154.5 L148.8 159.2 L144.8 163.9 L140.9 168.7 L137.1 173.6 L133.4 178.5 L129.7 183.5 L126.2 188.6 L122.8 193.7 L119.4 198.9 L116.2 204.2 L113.0 209.5 L109.9 214.9 L107.0 220.3 L104.1 225.8 L101.4 231.4 L98.7 237.0 L96.2 242.7 L93.8 248.4 L91.5 254.2 L89.3 260.1 L87.3 266.0 L85.3 272.0 L83.6 278.0 L82.0 284.1 L80.5 290.2 L79.2 296.4 L78.0 302.6 L77.0 308.8 L76.2 315.1 L75.6 321.4 L75.1 327.8 L74.9 334.1 L74.8 340.5 L74.9 346.9 L75.2 353.2 L75.7 359.6 L76.4 365.9 L77.3 372.2 L78.4 378.5 L79.7 384.8 L81.1 391.0 L82.8 397.2 L84.7 403.3 L86.7 409.3 L89.0 415.3 L91.4 421.2 L94.0 427.0 L96.7 432.7 L99.6 438.3 L102.7 443.9 L106.0 449.4 L109.3 454.7 L112.7 460.0 L116.0 465.4 L119.2 470.9 L122.3 476.4 L125.5 481.9 L128.6 487.5 L131.8 493.1 L135.1 498.8 L138.4 504.4 L141.9 510.1 L145.4 515.7 L149.1 521.3 L153.0 526.8 L157.0 532.2 L161.3 537.5 L165.7 542.6 L170.4 547.6 L175.2 552.4 L180.3 556.9 L185.7 561.1 L191.2 565.1 L197.0 568.7" stroke-width="1.14" stroke-linecap="round" opacity="0.71"/></g><g filter="url(#krglow)"><circle cx="499.2" cy="209.7" r="3.6" fill="#F0C486"/><circle cx="124.6" cy="479.9" r="2.8" fill="#F0C486"/><circle cx="517.3" cy="113.8" r="2.3" fill="#F0C486"/><circle cx="192.2" cy="577.5" r="2.5" fill="#F0C486"/><circle cx="551.9" cy="167.0" r="3.3" fill="#F0C486"/><circle cx="167.7" cy="441.5" r="2.1" fill="#F0C486"/><circle cx="472.8" cy="107.7" r="1.6" fill="#F0C486"/><circle cx="137.2" cy="521.0" r="3.3" fill="#F0C486"/><circle cx="162.3" cy="464.9" r="2.5" fill="#F0C486"/><circle cx="495.6" cy="161.3" r="2.2" fill="#F0C486"/><circle cx="115.5" cy="474.8" r="3.5" fill="#F0C486"/><circle cx="217.3" cy="556.1" r="3.5" fill="#F0C486"/><circle cx="419.1" cy="164.2" r="2.1" fill="#F0C486"/><circle cx="175.1" cy="462.7" r="1.7" fill="#F0C486"/><circle cx="454.1" cy="184.0" r="3.4" fill="#F0C486"/><circle cx="196.9" cy="473.2" r="2.5" fill="#F0C486"/><circle cx="505.0" cy="100.3" r="3.2" fill="#F0C486"/><circle cx="490.2" cy="152.1" r="2.8" fill="#F0C486"/><circle cx="153.1" cy="541.8" r="2.9" fill="#F0C486"/><circle cx="517.2" cy="193.2" r="2.7" fill="#F0C486"/><circle cx="167.1" cy="484.5" r="2.4" fill="#F0C486"/><circle cx="143.8" cy="499.4" r="2.7" fill="#F0C486"/><circle cx="441.6" cy="166.2" r="1.7" fill="#F0C486"/><circle cx="132.4" cy="489.6" r="2.3" fill="#F0C486"/><circle cx="474.6" cy="154.9" r="2.7" fill="#F0C486"/><circle cx="457.7" cy="119.5" r="2.8" fill="#F0C486"/><circle cx="462.6" cy="181.4" r="3.5" fill="#F0C486"/><circle cx="157.4" cy="516.2" r="3.3" fill="#F0C486"/><circle cx="439.5" cy="163.3" r="3.7" fill="#F0C486"/><circle cx="170.0" cy="451.4" r="2.0" fill="#F0C486"/><circle cx="522.4" cy="178.6" r="3.2" fill="#F0C486"/><circle cx="160.9" cy="448.1" r="1.9" fill="#F0C486"/><circle cx="488.4" cy="222.0" r="2.8" fill="#F0C486"/><circle cx="178.7" cy="542.0" r="2.6" fill="#F0C486"/><circle cx="414.3" cy="168.1" r="3.8" fill="#F0C486"/><circle cx="178.5" cy="433.3" r="2.3" fill="#F0C486"/><circle cx="483.3" cy="195.2" r="2.6" fill="#F0C486"/><circle cx="176.2" cy="475.1" r="2.2" fill="#F0C486"/><circle cx="129.7" cy="501.1" r="2.3" fill="#F0C486"/><circle cx="505.2" cy="150.0" r="3.4" fill="#F0C486"/><circle cx="442.1" cy="165.9" r="3.1" fill="#F0C486"/><circle cx="449.3" cy="133.0" r="1.8" fill="#F0C486"/><circle cx="199.1" cy="506.9" r="2.0" fill="#F0C486"/><circle cx="496.2" cy="168.5" r="3.6" fill="#F0C486"/><circle cx="151.8" cy="463.8" r="3.7" fill="#F0C486"/><circle cx="442.7" cy="150.9" r="2.0" fill="#F0C486"/><circle cx="428.3" cy="141.1" r="2.2" fill="#F0C486"/><circle cx="141.8" cy="452.6" r="3.5" fill="#F0C486"/><circle cx="528.7" cy="171.3" r="3.4" fill="#F0C486"/><circle cx="180.0" cy="438.2" r="3.4" fill="#F0C486"/><circle cx="490.6" cy="178.4" r="1.9" fill="#F0C486"/><circle cx="156.2" cy="451.0" r="1.8" fill="#F0C486"/><circle cx="502.0" cy="186.7" r="2.4" fill="#F0C486"/><circle cx="124.9" cy="513.2" r="2.8" fill="#F0C486"/><circle cx="213.5" cy="476.3" r="2.6" fill="#F0C486"/><circle cx="573.5" cy="168.4" r="2.5" fill="#F0C486"/><circle cx="117.7" cy="507.2" r="2.3" fill="#F0C486"/><circle cx="531.6" cy="154.4" r="2.5" fill="#F0C486"/><circle cx="197.0" cy="568.7" r="2.4" fill="#F0C486"/></g></svg>